<?xml version="1.0" standalone="no"?>
<!DOCTYPE svg PUBLIC "-//W3C//DTD SVG 1.1//EN" "http://www.w3.org/Graphics/SVG/1.1/DTD/svg11.dtd" >
<svg xmlns="http://www.w3.org/2000/svg">
<metadata>Generated by IcoMoon</metadata>
<defs>
<font id="icomoon" horiz-adv-x="1024">
<font-face units-per-em="1024" ascent="960" descent="-64" />
<missing-glyph horiz-adv-x="1024" />
<glyph unicode="&#x20;" horiz-adv-x="512" d="" />
<glyph unicode="&#x29;" glyph-name="smile" d="M512 0c247.422 0 448 200.578 448 448s-200.578 448-448 448-448-200.578-448-448 200.578-448 448-448zM512 812c201.030 0 364-162.97 364-364s-162.97-364-364-364-364 162.97-364 364 162.97 364 364 364zM288 616c0 30.926 25.074 56 56 56s56-25.074 56-56c0-30.926-25.074-56-56-56s-56 25.074-56 56zM624 616c0 30.926 25.074 56 56 56s56-25.074 56-56c0-30.926-25.074-56-56-56s-56 25.074-56 56zM680.086 347.148l72.036-43.22c-48.966-81.438-138.176-135.926-240.122-135.926s-191.156 54.49-240.122 135.926l72.036 43.22c34.278-57.004 96.726-95.148 168.086-95.148s133.808 38.144 168.086 95.148z" />
<glyph unicode="&#x2a;" glyph-name="number" d="M993.792 346.283c5.888 18.987 8.875 38.827 8.875 59.051 0 111.744-90.923 202.667-202.667 202.667-59.563 0-114.56-26.027-152.448-69.632-0.896 0.896-1.493 1.963-2.389 2.859-41.515 41.557-100.224 65.408-161.109 65.408-60.672 0-119.211-23.723-160.853-65.067-11.264 18.389-27.477 34.688-47.872 47.275-20.224 12.544-44.032 19.157-68.821 19.157-20.565 0-40.747-4.651-58.411-13.483l-59.989-31.872c-61.525-30.763-87.509-107.776-56.021-170.752 11.605-23.168 30.464-41.899 53.248-54.272v-198.955c0-70.571 57.429-128 128-128 32.683 0 62.208 12.672 84.864 32.896 23.040-20.779 53.333-32.896 85.803-32.896h213.333c33.195 0 63.104 13.013 85.76 33.92 33.963-21.333 73.856-33.92 116.907-33.92 123.52 0 224 100.48 224 224 0 39.339-10.667 77.867-30.208 111.616zM256 138.667c0-23.552-19.115-42.667-42.667-42.667s-42.667 19.115-42.667 42.667v272.299c-6.144-3.072-13.056-4.523-20.096-4.523-17.109 0-34.688 8.661-42.155 23.595-10.539 21.077-1.323 46.72 19.755 57.259l58.069 30.891c6.016 2.987 13.099 4.48 20.267 4.48 8.491 0 17.067-2.133 23.936-6.357 12.544-7.808 25.557-21.504 25.557-36.309v-341.333zM597.333 96h-213.333c-17.237 0-32.811 10.411-39.424 26.325-6.613 15.957-2.944 34.304 9.259 46.507l170.667 170.667c10.837 10.837 16.811 25.216 16.811 40.533 0 15.275-5.973 29.653-16.811 40.491s-25.643 16.256-40.491 16.256-29.696-5.419-40.619-16.299c-10.752-10.752-16.725-25.131-16.725-40.448 0-23.552-19.115-42.667-42.667-42.667s-42.667 19.115-42.667 42.667c0 38.144 14.848 73.941 41.813 100.864s63.915 40.405 100.864 40.405 73.856-13.483 100.821-40.448c26.965-26.923 41.771-62.763 41.771-100.821 0-38.101-14.848-73.941-41.771-100.864l-97.835-97.835h110.336c23.552 0 42.667-19.115 42.667-42.667s-19.115-42.667-42.667-42.667zM800 96c-76.459 0-138.667 62.208-138.667 138.667 0 23.552 19.115 42.667 42.667 42.667s42.667-19.115 42.667-42.667c0-29.397 23.936-53.333 53.333-53.333s53.333 23.936 53.333 53.333-23.936 53.333-53.333 53.333c-23.552 0-42.667 19.115-42.667 42.667s19.115 42.667 42.667 42.667c17.664 0 32 14.336 32 32s-14.336 32-32 32c-11.989 0-22.869-6.613-28.373-17.237-7.595-14.635-22.485-23.040-37.931-23.040-6.613 0-13.312 1.536-19.584 4.779-20.949 10.837-29.099 36.565-18.261 57.515 20.267 39.040 60.16 63.317 104.149 63.317 64.683 0 117.333-52.608 117.333-117.333 0-26.069-8.832-49.92-23.253-69.419 27.264-25.344 44.587-61.184 44.587-101.248 0-76.459-62.208-138.667-138.667-138.667z" />
<glyph unicode="&#x3f;" glyph-name="help" d="M512 896c-247.519 0-448-200.479-448-448s200.479-448 448-448 448 200.479 448 448-200.479 448-448 448zM556.8 134.4h-89.599v89.599h89.599v-89.599zM649.311 481.376l-40.096-41.216c-32.256-32.256-52.416-59.36-52.416-126.559h-89.599v22.4c0 49.504 20.16 94.303 52.416 126.784l55.776 56.448c16.128 16.128 26.208 38.528 26.208 63.168 0 49.504-40.096 89.599-89.599 89.599s-89.599-40.096-89.599-89.599h-89.599c0 99.007 80.192 179.2 179.2 179.2s179.2-80.192 179.2-179.2c0-39.424-15.904-75.040-41.888-101.023z" />
<glyph unicode="&#x62;" glyph-name="bold" d="M693.027 462.421c48.521 33.937 82.973 88.759 82.973 140.303 0 113.399-87.747 201.138-201.138 201.138h-314.281v-704h354.013c105.347 0 186.56 85.481 186.56 190.578 0 76.439-43.503 141.559-108.119 171.983zM411.427 678.147h150.863c41.742 0 75.427-33.693 75.427-75.427s-33.693-75.427-75.427-75.427h-150.863v150.863zM587.427 225.569h-176v150.863h176c41.742 0 75.427-33.693 75.427-75.427s-33.693-75.427-75.427-75.427z" />
<glyph unicode="&#x63;" glyph-name="fontcolor" d="M109.716 234.286h804.574v-134.099h-804.574zM478.479 804.193l-184.38-469.336h75.428l37.718 100.574h209.521l37.718-100.574h75.428l-184.38 469.336h-67.045zM432.381 502.478l79.619 212.377 79.619-212.377h-159.239z" />
<glyph unicode="&#x66;" glyph-name="sex-f" d="M568 810.934c0-46.391-37.609-84-84-84s-84 37.609-84 84c0 46.391 37.609 84 84 84s84-37.609 84-84zM693.124 446.934l42.876 31.064-116.626 180.352c-5.18 7.856-13.962 12.586-23.374 12.586h-224c-9.412 0-18.192-4.728-23.374-12.586l-116.626-180.352 42.876-31.064 96.812 125.648 33.65-78.524-117.338-215.124h107.334l18.666-280h56v280h28v-280h56l18.666 280h107.334l-117.34 215.126 33.65 78.524 96.814-125.65z" />
<glyph unicode="&#x67;" glyph-name="sex" d="M288 812c0-46.391-37.609-84-84-84s-84 37.609-84 84c0 46.391 37.609 84 84 84s84-37.609 84-84zM792 812c0-46.391-37.609-84-84-84s-84 37.609-84 84c0 46.391 37.609 84 84 84s84-37.609 84-84zM288 672h-168c-30.926 0-56-25.074-56-56v-280h56v-336h70v336h28v-336h70v336h56v280c0 30.926-25.072 56-56 56zM917.124 448l42.876 31.064-116.626 180.352c-5.18 7.856-13.962 12.586-23.374 12.586h-224c-9.412 0-18.192-4.728-23.374-12.586l-116.626-180.352 42.876-31.064 96.812 125.648 33.65-78.524-117.338-215.124h107.334l18.666-280h56v280h28v-280h56l18.666 280h107.334l-117.34 215.126 33.65 78.524 96.814-125.65z" />
<glyph unicode="&#x68;" glyph-name="height" horiz-adv-x="439" d="M356.59 694.855q0-11.145-8.145-19.284t-19.284-8.145h-54.855v-438.855h54.855q11.145 0 19.284-8.145t8.145-19.284-8.145-19.284l-109.717-109.717q-8.145-8.145-19.284-8.145t-19.284 8.145l-109.717 109.717q-8.145 8.145-8.145 19.284t8.145 19.284 19.284 8.145h54.855v438.855h-54.855q-11.145 0-19.284 8.145t-8.145 19.284 8.145 19.284l109.717 109.717q8.145 8.145 19.284 8.145t19.284-8.145l109.717-109.717q8.145-8.145 8.145-19.284z" />
<glyph unicode="&#x69;" glyph-name="italic" d="M411.426 799.478v-150.862h111.377l-172.48-402.285h-140.043v-150.862h402.285v150.862h-111.377l172.48 402.285h140.043v150.862z" />
<glyph unicode="&#x71;" glyph-name="question" d="M671.964 748.413c-44.626 32.188-100.594 48.259-168.023 48.259-51.314 0-94.566-11.341-129.729-33.95-55.809-35.431-85.458-95.584-89.055-180.453h129.303c0 24.717 7.197 48.54 21.63 71.455s38.914 34.375 73.447 34.375c35.079 0 59.294-9.31 72.51-27.885 13.255-18.655 19.87-39.265 19.87-61.874 0-19.676-9.855-37.664-21.747-54.049-6.53-9.54-15.173-18.304-25.854-26.362 0 0-70.124-44.978-100.946-81.116-17.875-20.963-19.481-52.327-21.043-97.344-0.121-3.204 1.093-9.82 12.32-9.82s90.62 0 100.594 0 12.045 7.391 12.199 10.637c0.704 16.385 2.541 24.761 5.555 34.221 5.669 17.875 20.999 33.477 38.29 46.892l35.588 24.563c32.109 25.028 57.764 45.565 69.068 61.676 19.327 26.521 32.897 59.135 32.897 97.819 0 63.165-22.334 110.801-66.879 142.947zM501.869 252.098c-44.583 1.331-81.348-29.491-82.757-77.828-1.409-48.3 33.561-80.219 78.144-81.542 46.54-1.371 82.331 28.476 83.739 76.772 1.369 48.343-32.578 81.234-79.122 82.598z" />
<glyph unicode="&#x73;" glyph-name="fontsize" d="M375.916 769.558v-136.084h226.806v-544.339h136.084v544.339h226.806v136.084h-589.705zM103.745 406.665h136.084v-317.535h136.084v317.535h136.084v136.084h-408.255v-136.084z" />
<glyph unicode="&#x77;" glyph-name="width" d="M889.6 448q0-10.957-8.007-18.964l-107.886-107.886q-8.007-8.007-18.964-8.007t-18.964 8.007-8.007 18.964v53.943h-431.543v-53.943q0-10.957-8.007-18.964t-18.964-8.007-18.964 8.007l-107.886 107.886q-8.007 8.007-8.007 18.964t8.007 18.964l107.886 107.886q8.007 8.007 18.964 8.007t18.964-8.007 8.007-18.964v-53.943h431.543v53.943q0 10.957 8.007 18.964t18.964 8.007 18.964-8.007l107.886-107.886q8.007-8.007 8.007-18.964z" />
<glyph unicode="&#x78;" glyph-name="close" d="M622.293 618.667l-110.293-110.293-110.293 110.293-60.373-60.373 110.293-110.293-110.293-110.293 60.373-60.373 110.293 110.293 110.293-110.293 60.373 60.373-110.293 110.293 110.293 110.293-60.373 60.373zM512 874.667c-235.733 0-426.667-190.933-426.667-426.667s190.933-426.667 426.667-426.667 426.667 190.933 426.667 426.667-190.933 426.667-426.667 426.667zM512 106.667c-188.16 0-341.333 153.173-341.333 341.333s153.173 341.333 341.333 341.333 341.333-153.173 341.333-341.333-153.173-341.333-341.333-341.333z" />
<glyph unicode="&#xe2c2;" glyph-name="cloud" d="M810 96c70 0 128 58 128 128s-58 128-128 128h-64v22c0 130-104 234-234 234-108 0-198-72-226-170h-30c-94 0-170-78-170-172s76-170 170-170h554zM826 436c110-8 198-100 198-212 0-118-96-214-214-214h-554c-142 0-256 114-256 256 0 132 100 240 228 254 54 102 160 174 284 174 156 0 284-110 314-258z" />
<glyph unicode="&#xe530;" glyph-name="bus" d="M768 426v214h-512v-214h512zM704 170c36 0 64 28 64 64s-28 64-64 64-64-28-64-64 28-64 64-64zM320 170c36 0 64 28 64 64s-28 64-64 64-64-28-64-64 28-64 64-64zM170 214v426c0 150 154 170 342 170s342-20 342-170v-426c0-38-18-72-44-96v-76c0-24-18-42-42-42h-42c-24 0-44 18-44 42v44h-340v-44c0-24-20-42-44-42h-42c-24 0-42 18-42 42v76c-26 24-44 58-44 96z" />
<glyph unicode="&#xe532;" glyph-name="boat" d="M273.43 684.392v-158.426l238.57 78.28 238.57-78.28v158.426h-477.14zM191.422 168.11l-74.554 264.664c-8.912 26.739 7.436 44.105 26.094 50.324l50.324 16.774v184.52c0 42.868 37.276 80.144 80.144 80.144h119.286v119.286h238.57v-119.286h119.286c42.868 0 80.144-37.276 80.144-80.144v-184.52l50.324-16.774c18.676-6.226 35.016-23.556 26.094-50.324l-74.554-264.664h-1.864c-63.37 0-121.148 33.548-160.29 78.28-39.14-44.732-95.056-78.28-158.426-78.28s-119.286 33.548-158.426 78.28c-39.14-44.732-96.92-78.28-160.29-78.28h-1.864zM830.714 87.966h78.28v-80.144h-78.28c-54.052 0-109.966 13.046-160.29 39.14-100.646-52.188-216.204-52.188-316.852 0-50.324-26.094-106.238-39.14-160.29-39.14h-78.28v80.144h78.28c55.914 0 111.83 18.638 160.29 52.188 96.92-67.098 219.932-67.098 316.852 0 48.46-33.548 104.374-52.188 160.29-52.188z" />
<glyph unicode="&#xe534;" glyph-name="railway" d="M768 470v212h-512v-212h512zM512 170c46 0 86 40 86 86s-40 86-86 86-86-40-86-86 40-86 86-86zM170 234v448c0 150 154 172 342 172s342-22 342-172v-448c0-82-68-148-150-148l64-64v-22h-512v22l64 64c-82 0-150 66-150 148z" />
<glyph unicode="&#xe539;" glyph-name="travel" d="M896 262l-342 106v-234l86-64v-64l-150 42-148-42v64l84 64v234l-340-106v84l340 214v234c0 36 28 64 64 64s64-28 64-64v-234l342-214v-84z" />
<glyph unicode="&#xe541;" glyph-name="drink" d="M68.25 12v89.583h800v-89.583h-800zM868.25 589.083v133.333h-89.583v-133.333h89.583zM868.25 812c50 0 87.5-39.583 87.5-89.583v-133.333c0-50-37.5-87.5-87.5-87.5h-89.583v-133.333c0-97.917-79.167-179.167-177.083-179.167h-266.667c-97.917 0-179.167 81.25-179.167 179.167v443.75h712.5z" />
<glyph unicode="&#xe5d2;" glyph-name="cols" d="M277.337 96v704h78.837v-704h-78.837zM550.5 96h-77v704h77v-704zM746.663 96h-78.837v704h78.837v-704z" />
<glyph unicode="&#xe5d3;" glyph-name="rows" d="M168 677.333h688v-77.042h-688v77.042zM168 410.375v75.25h688v-75.25h-688zM168 218.667v77.042h688v-77.042h-688z" />
<glyph unicode="&#xe600;" glyph-name="documents" d="M792 672h-168v56l-168 168h-392v-672h336v-224h560v504l-168 168zM792 592.802l88.802-88.802h-88.802v88.802zM456 816.802l88.802-88.802h-88.802v88.802zM120 840h280v-168h168v-392h-448v560zM904 56h-448v168h168v392h112v-168h168v-392z" />
<glyph unicode="&#xe602;" glyph-name="modules" d="M960 896h-672v-224c-81.368 0-224 0-224 0v-672h672v224h224v672zM624 112h-448v336h112v-224h336c0-50.092 0-112 0-112zM848 336h-448v336h448v-336z" />
<glyph unicode="&#xe603;" glyph-name="table" d="M0 896v-896h1024v896h-1024zM384 320v192h256v-192h-256zM640 256v-192h-256v192h256zM640 768v-192h-256v192h256zM320 768v-192h-256v192h256zM64 512h256v-192h-256v192zM704 512h256v-192h-256v192zM704 576v192h256v-192h-256zM64 256h256v-192h-256v192zM704 64v192h256v-192h-256z" />
<glyph unicode="&#xe604;" glyph-name="index" d="M128 704h64v64h-64v-64zM896 896h-768c-70.688 0-128-57.312-128-128v-768h1024v768c0 70.688-57.312 128-128 128zM960 64h-896v512h896v-512zM960 640h-896v128c0 35.328 28.672 64 64 64h768c35.328 0 64-28.672 64-64v-128zM864 768h-448c-17.664 0-32-14.336-32-32s14.336-32 32-32h448c17.696 0 32 14.336 32 32s-14.304 32-32 32zM256 704h64v64h-64v-64z" />
<glyph unicode="&#xe605;" glyph-name="share" d="M768 257.707c-32.427 0-61.653-12.587-83.84-32.853l-304 177.28c2.347 9.6 3.84 19.627 3.84 29.867s-1.493 20.267-3.84 29.867l300.8 175.573c22.827-21.333 53.333-34.56 87.040-34.56 70.613 0 128 57.387 128 128s-57.387 128-128 128-128-57.387-128-128c0-10.24 1.493-20.267 3.84-29.867l-300.8-175.573c-22.827 21.333-53.333 34.56-87.040 34.56-70.613 0-128-57.387-128-128s57.387-128 128-128c33.707 0 64.213 13.227 87.040 34.56l304-177.28c-2.133-8.96-3.413-18.347-3.413-27.947 0-68.693 55.68-124.373 124.373-124.373s124.373 55.68 124.373 124.373-55.68 124.373-124.373 124.373z" />
<glyph unicode="&#xe60b;" glyph-name="next" d="M292.997 154.001l293.999 293.999-293.999 293.999 90 90 384-384-384-384z" />
<glyph unicode="&#xe60c;" glyph-name="prev" d="M731.003 741.999l-293.999-293.999 293.999-293.999-90-90-384 384 384 384z" />
<glyph unicode="&#xe60e;" glyph-name="link" horiz-adv-x="950" d="M789.469 196.517q0 20.151-14.103 34.254l-104.766 104.766q-14.103 14.103-34.254 14.103-21.154 0-36.261-16.119 1.509-1.509 9.569-9.316t10.827-10.827 7.557-9.569 6.546-12.844 1.76-13.852q0-20.151-14.103-34.254t-34.254-14.103q-7.557 0-13.852 1.76t-12.844 6.546-9.569 7.557-10.827 10.827-9.316 9.569q-16.623-15.612-16.623-36.771 0-20.151 14.103-34.254l103.758-104.259q13.602-13.602 34.254-13.602 20.151 0 34.254 13.095l74.043 73.533q14.103 14.103 14.103 33.744zM435.386 551.605q0 20.151-14.103 34.254l-103.758 104.259q-14.103 14.103-34.254 14.103-19.641 0-34.254-13.602l-74.043-73.533q-14.103-14.103-14.103-33.744 0-20.151 14.103-34.254l104.766-104.766q13.602-13.602 34.254-13.602 21.154 0 36.261 15.612-1.509 1.509-9.569 9.316t-10.827 10.827-7.557 9.569-6.546 12.844-1.76 13.852q0 20.151 14.103 34.254t34.254 14.103q7.557 0 13.852-1.76t12.844-6.546 9.569-7.557 10.827-10.827 9.316-9.569q16.623 15.612 16.623 36.771zM886.169 196.517q0-60.441-42.81-102.249l-74.043-73.533q-41.806-41.806-102.249-41.806-60.944 0-102.75 42.81l-103.758 104.259q-41.806 41.806-41.806 102.249 0 61.95 44.324 105.267l-44.324 44.324q-43.317-44.324-104.766-44.324-60.441 0-102.75 42.309l-104.766 104.766q-42.309 42.309-42.309 102.75t42.81 102.249l74.043 73.533q41.806 41.806 102.249 41.806 60.944 0 102.75-42.81l103.758-104.259q41.806-41.806 41.806-102.249 0-61.95-44.324-105.267l44.324-44.324q43.317 44.324 104.766 44.324 60.441 0 102.75-42.309l104.766-104.766q42.309-42.309 42.309-102.75z" />
<glyph unicode="&#xe610;" glyph-name="menus" d="M824 2.286h-520q-43.064 0-73.532 30.468t-30.468 73.532v416q-43.064 0-73.532 30.468t-30.468 73.532v104q0 43.064 30.468 73.532t73.532 30.468h624q43.064 0 73.532-30.468t30.468-73.532v-624q0-43.064-30.468-73.532t-73.532-30.468zM814.25 756.286h-240.5q-6.5 0-8.936-11.782t4.064-19.096l109.686-143.814q6.5-7.314 15.436-7.314t15.436 7.314l109.686 143.814q6.5 7.314 4.064 19.096t-8.936 11.782zM824 522.286h-520v-104h520v104zM824 366.286h-520v-104h520v104zM824 210.286h-520v-78q0-10.564 7.718-18.282t18.282-7.718h468q10.564 0 18.282 7.718t7.718 18.282v78z" />
<glyph unicode="&#xe611;" glyph-name="subcategory" d="M37.334 47.5v169.523q0 21.191 14.834 36.023t36.023 14.834h50.857v101.714q0 27.548 20.13 47.679t47.679 20.13h271.237v101.714h-50.857q-21.191 0-36.023 14.834t-14.834 36.023v169.523q0 21.191 14.834 36.023t36.023 14.834h169.523q21.191 0 36.023-14.834t14.834-36.023v-169.523q0-21.191-14.834-36.023t-36.023-14.834h-50.857v-101.714h271.237q27.548 0 47.679-20.13t20.13-47.679v-101.714h50.857q21.191 0 36.023-14.834t14.834-36.023v-169.523q0-21.191-14.834-36.023t-36.023-14.834h-169.523q-21.191 0-36.023 14.834t-14.834 36.023v169.523q0 21.191 14.834 36.023t36.023 14.834h50.857v101.714h-271.237v-101.714h50.857q21.191 0 36.023-14.834t14.834-36.023v-169.523q0-21.191-14.834-36.023t-36.023-14.834h-169.523q-21.191 0-36.023 14.834t-14.834 36.023v169.523q0 21.191 14.834 36.023t36.023 14.834h50.857v101.714h-271.237v-101.714h50.857q21.191 0 36.023-14.834t14.834-36.023v-169.523q0-21.191-14.834-36.023t-36.023-14.834h-169.523q-21.191 0-36.023 14.834t-14.834 36.023z" />
<glyph unicode="&#xe612;" glyph-name="loading" d="M674.744 384c103.314 65.502 173.256 191.408 173.256 336 0 16.26-0.896 32.274-2.606 48h-666.78c-1.716-15.728-2.608-31.742-2.608-48 0-144.592 69.942-270.498 173.254-336-103.312-65.502-173.254-191.408-173.254-336 0-16.26 0.894-32.274 2.606-48h666.78c1.716 15.726 2.606 31.74 2.606 48 0.002 144.592-69.94 270.498-173.254 336zM248 48c0 140.184 60.122 259.062 168 298.284v75.442c-107.878 39.218-168 158.096-168 298.282v0h528c0-140.186-60.122-259.064-168-298.282v-75.442c107.878-39.222 168-158.1 168-298.284h-528zM592.722 265.806c-53.742 30.484-56.704 70.024-56.722 94.022v48.172c0 23.994 2.852 63.684 56.808 94.248 28.88 16.772 53.856 42.26 72.784 73.752h-307.188c18.948-31.524 43.956-57.034 72.876-73.806 53.742-30.484 56.702-70.022 56.722-94.022v-48.172c0-23.992-2.852-63.684-56.808-94.248-54.468-31.636-95.052-94.26-107.316-169.752h376.254c-12.276 75.532-52.898 138.184-107.412 169.806z" />
<glyph unicode="&#xe613;" glyph-name="keyboard" horiz-adv-x="1152" d="M1088 768h-1024c-35.2 0-64-28.8-64-64v-640c0-35.2 28.8-64 64-64h1024c35.2 0 64 28.8 64 64v640c0 35.2-28.8 64-64 64zM640 640h128v-128h-128v128zM832 448v-128h-128v128h128zM448 640h128v-128h-128v128zM640 448v-128h-128v128h128zM256 640h128v-128h-128v128zM448 448v-128h-128v128h128zM128 640h64v-128h-64v128zM128 448h128v-128h-128v128zM192 128h-64v128h64v-128zM768 128h-512v128h512v-128zM1024 128h-192v128h192v-128zM1024 320h-128v128h128v-128zM1024 512h-192v128h192v-128z" />
<glyph unicode="&#xe614;" glyph-name="world" d="M828.784 764.782c84.614-84.616 131.216-197.12 131.216-316.784s-46.602-232.166-131.216-316.782c-84.618-84.614-197.12-131.216-316.784-131.216s-232.166 46.602-316.784 131.216c-84.614 84.616-131.216 197.118-131.216 316.782s46.598 232.168 131.216 316.784c84.618 84.616 197.12 131.218 316.784 131.218s232.166-46.602 316.784-131.218zM789.186 170.814c55.174 55.176 91.862 123.908 106.988 198.678-11.79-17.356-23.066-23.794-30.052 15.054-7.192 63.342-65.368 22.88-101.952 45.376-38.504-25.95-125.042 50.454-110.334-35.72 22.694-38.87 122.508 52.018 72.756-30.226-31.738-57.414-116.062-184.564-105.094-250.474 1.386-96.026-98.118-20.024-132.398 11.83-23.060 63.804-7.858 175.326-68.162 206.574-65.45 2.842-121.628 8.79-146.994 81.962-15.266 52.348 16.244 130.282 72.342 142.312 82.118 51.594 111.454-60.422 188.466-62.506 23.912 25.018 89.088 32.974 94.492 61.030-50.53 8.918 64.108 42.49-4.836 61.586-38.038-4.472-62.542-39.438-42.322-69.090-73.71-17.186-76.068 106.666-146.922 67.602-1.802-61.766-115.694-20.026-39.408-7.5 26.212 11.452-42.752 44.64-5.496 38.608 18.3 0.994 79.916 22.584 63.24 37.102 34.31 21.296 63.14-51.002 96.722 1.646 24.244 40.482-10.168 47.956-40.558 27.436-17.132 19.184 30.25 60.616 72.040 78.522 13.93 5.968 27.23 9.22 37.402 8.3 21.050-24.318 59.982-28.53 62.018 2.926-52.134 24.966-109.616 38.156-169.132 38.156-85.418 0-166.662-27.146-233.896-77.342 18.070-8.276 28.324-18.582 10.918-31.76-13.524-40.298-68.398-94.392-116.572-86.732-25.014-43.134-41.484-90.654-48.528-140.462 40.348-13.348 49.652-39.77 40.98-48.606-20.56-17.928-33.194-43.338-39.704-71.158 13.134-80.356 50.9-154.416 109.61-213.128 74.040-74.038 172.478-114.814 277.186-114.814 104.706 0 203.148 40.776 277.186 114.814z" />
<glyph unicode="&#xe615;" glyph-name="summary" d="M456 200.802l-179.598 207.598 51.196 51.198 128.402-100.4 240.4 212.4 51.198-51.196zM791.8 784c0.070-0.058 0.142-0.13 0.2-0.202v-671.598c-0.058-0.070-0.13-0.142-0.2-0.2h-559.6c-0.070 0.058-0.142 0.13-0.2 0.2v671.6c0.058 0.070 0.13 0.142 0.202 0.2h-112.202v-672c0-61.6 50.4-112 112-112h560c61.6 0 112 50.4 112 112v672h-112.2zM624 784v56c0 30.926-25.074 56-56 56h-112c-30.926 0-56-25.074-56-56v-56h-112v-112h448v112h-112zM568 784h-112v56h112v-56z" />
<glyph unicode="&#xe616;" glyph-name="wizard" d="M943.44-14.568q-16.628-16.628-39.38-17.504t-38.506 14.876l-561.836 562.712q-15.752 15.752-14.876 38.506t17.504 39.38 39.38 17.504 38.506-14.876l561.836-562.712q15.752-15.752 14.876-38.506t-17.504-39.38zM890.932 640.908l-70.012 40.256-69.136-40.256 14.876 81.388-57.76 56.884 78.763 10.5 33.256 75.26 34.132-75.26 78.763-10.5-57.76-56.884zM192.576 655.788l-112.892 113.768q-15.752 15.752-14.876 38.506t17.504 39.38 39.38 17.504 38.506-14.876l112.892-113.768q15.752-15.752 14.876-38.506t-17.504-39.38-39.38-17.504-38.506 14.876zM170.696 453.632l34.132 75.26 33.256-75.26 78.763-10.5-57.76-56.884 14.876-82.264-69.136 40.256-70.012-40.256 14.876 82.264-56.884 56.884zM394.732 116.704l34.132 75.26 33.256-75.26 78.763-9.628-57.76-57.76 14.876-81.388-69.136 40.256-69.136-40.256 14.876 81.388-57.76 57.76z" />
<glyph unicode="&#xe617;" glyph-name="ip" d="M848-32h-56q-22.75 0-39.376 16.624t-16.624 39.812 16.624 39.376 39.376 16.188h28q11.376 0 19.688 8.312t8.312 19.688v28q0 23.624 16.188 39.812t39.376 16.188 39.812-16.188 16.624-39.812v-56q0-46.376-32.812-79.188t-79.188-32.812zM904 640q-23.624 0-39.812 16.624t-16.188 39.376v28q0 11.376-8.312 19.688t-19.688 8.312h-28q-22.75 0-39.376 16.188t-16.624 39.812 16.624 39.812 39.376 16.188h56q46.376 0 79.188-32.812t32.812-79.188v-56q0-23.624-16.188-39.812t-39.812-16.188zM792 472q0-70-49-119t-119-49h-56v-56q0-23.624-16.188-39.812t-39.376-16.188-39.812 16.624-16.624 39.376v336q0 23.624 16.624 39.812t39.376 16.188h112q70 0 119-49t49-119zM624 528h-56v-112h56q22.75 0 39.376 16.624t16.624 39.812-16.188 39.376-39.812 16.188zM288.436 192q-23.188 0-39.812 16.624t-16.624 39.376v336q0 23.624 16.624 39.812t39.376 16.188 39.376-16.188 16.624-39.812v-336q0-23.624-16.188-39.812t-39.376-16.188zM232 752h-28q-11.376 0-19.688-8.312t-8.312-19.688v-28q0-23.624-16.188-39.812t-39.376-16.188-39.812 16.624-16.624 39.376v56q0 46.376 32.812 79.188t79.188 32.812h56q22.75 0 39.376-16.188t16.624-39.376-16.188-39.812-39.812-16.624zM120.436 192q23.188 0 39.376-16.188t16.188-39.812v-28q0-11.376 8.312-19.688t19.688-8.312h28q22.75 0 39.376-16.188t16.624-39.376-16.624-39.812-39.376-16.624h-56q-46.376 0-79.188 32.812t-32.812 79.188v56q0 23.624 16.624 39.812t39.812 16.188z" />
<glyph unicode="&#xe61a;" glyph-name="news" d="M896 640v128h-896v-704c0-35.346 28.654-64 64-64h864c53.022 0 96 42.978 96 96v544h-128zM832 64h-768v640h768v-640zM128 576h640v-64h-640zM512 448h256v-64h-256zM512 320h256v-64h-256zM512 192h192v-64h-192zM128 448h320v-320h-320z" />
<glyph unicode="&#xe61b;" glyph-name="gps" d="M512 618.667c-94.293 0-170.667-76.373-170.667-170.667s76.373-170.667 170.667-170.667 170.667 76.373 170.667 170.667-76.373 170.667-170.667 170.667zM893.44 490.667c-19.627 177.92-160.853 319.147-338.773 338.773v87.893h-85.333v-87.893c-177.92-19.627-319.147-160.853-338.773-338.773h-87.893v-85.333h87.893c19.627-177.92 160.853-319.147 338.773-338.773v-87.893h85.333v87.893c177.92 19.627 319.147 160.853 338.773 338.773h87.893v85.333h-87.893zM512 149.333c-164.907 0-298.667 133.76-298.667 298.667s133.76 298.667 298.667 298.667 298.667-133.76 298.667-298.667-133.76-298.667-298.667-298.667z" />
<glyph unicode="&#xe61c;" glyph-name="create" horiz-adv-x="951" d="M59.436 63.999v640.001q0 25.998 18.998 45.001t45.001 18.998h63.999v48.001q0 32.998 23.501 56.499t56.499 23.501h31.999q32.998 0 56.499-23.501t23.501-56.499v-48.001h192.001v48.001q0 32.998 23.501 56.499t56.499 23.501h31.999q32.998 0 56.499-23.501t23.501-56.499v-48.001h63.999q25.998 0 45.001-18.998t18.998-45.001v-640.001q0-25.998-18.998-45.001t-45.001-18.998h-703.999q-25.998 0-45.001 18.998t-18.998 45.001zM123.439 63.999h703.999v511.999h-703.999v-511.999zM251.437 672q0-7 4.499-11.499t11.499-4.499h31.999q7 0 11.499 4.499t4.499 11.499v143.999q0 7-4.499 11.499t-11.499 4.499h-31.999q-7 0-11.499-4.499t-4.499-11.499v-143.999zM635.438 672q0-7 4.499-11.499t11.499-4.499h31.999q7 0 11.499 4.499t4.499 11.499v143.999q0 7-4.499 11.499t-11.499 4.499h-31.999q-7 0-11.499-4.499t-4.499-11.499v-143.999z" />
<glyph unicode="&#xe61d;" glyph-name="copy" d="M904 0h-392q-23.624 0-39.812 16.188t-16.188 39.812v504q0 22.75 16.188 39.376t39.812 16.624h224v-224h224v-336q0-23.624-16.188-39.812t-39.812-16.188zM792 615.124q17.5-2.624 28-13.124l125.124-128.624q9.624-9.624 12.25-25.376h-165.376v167.124zM680 784h-56v56h56q23.624 0 39.812-16.624t16.188-39.376v-112h-56v112zM512 728h-224q-23.624 0-39.812 16.188t-16.188 39.376 16.188 39.812 39.812 16.624q0 22.75 16.188 39.376t39.812 16.624h112q23.624 0 39.812-16.624t16.188-39.376q23.624 0 39.812-16.624t16.188-39.812-16.188-39.376-39.812-16.188zM120 112h280v-56h-280q-22.75 0-39.376 16.188t-16.624 39.812v672q0 22.75 16.188 39.376t39.812 16.624h56v-56h-56v-672z" />
<glyph unicode="&#xe61f;" glyph-name="vol-down" d="M789.333 448c0 75.52-43.52 140.373-106.667 171.947v-343.467c63.147 31.147 106.667 96 106.667 171.52zM213.333 576v-256h170.667l213.333-213.333v682.667l-213.333-213.333h-170.667z" />
<glyph unicode="&#xe620;" glyph-name="newtopic" d="M512 112q-57.75 0-117.25 14-29.75-35-60.812-60.812t-52.5-38.064-41.564-18.812-26.688-7.436-9.188-0.876q22.75 49.876 26.25 108.936t-11.376 99.312q-72.624 55.124-113.75 132.124t-41.124 163.624q0 79.624 35.436 152.25t95.376 125.124 143.064 83.564 174.124 31.064 174.124-31.064 143.064-83.564 95.376-125.124 35.436-152.25-35.436-152.25-95.376-125.124-143.064-83.564-174.124-31.064zM736 532q0 11.376-8.312 19.688t-19.688 8.312h-140v140q0 11.376-8.312 19.688t-19.688 8.312h-56q-11.376 0-19.688-8.312t-8.312-19.688v-140h-140q-11.376 0-19.688-8.312t-8.312-19.688v-56q0-11.376 8.312-19.688t19.688-8.312h140v-140q0-11.376 8.312-19.688t19.688-8.312h56q11.376 0 19.688 8.312t8.312 19.688v140h140q11.376 0 19.688 8.312t8.312 19.688v56z" />
<glyph unicode="&#xe621;" glyph-name="vol-up" d="M128 576v-256h170.667l213.333-213.333v682.667l-213.333-213.333h-170.667zM704 448c0 75.52-43.52 140.373-106.667 171.947v-343.467c63.147 31.147 106.667 96 106.667 171.52zM597.333 822.187v-87.893c123.307-36.693 213.333-151.040 213.333-286.293s-90.027-249.6-213.333-286.293v-87.893c171.093 38.827 298.667 191.573 298.667 374.187s-127.573 335.36-298.667 374.187z" />
<glyph unicode="&#xe622;" glyph-name="currency" d="M514.135 898.135c-247.422 0-448-200.578-448-448s200.578-448 448-448c247.423 0 448 200.577 448 448s-200.577 448-448 448zM514.135 91.735c-197.941 0-358.4 160.459-358.4 358.4s160.459 358.4 358.4 358.4c197.941 0 358.4-160.459 358.4-358.4s-160.459-358.4-358.4-358.4zM544 480v119.465h119.465v59.735h-119.465v59.735h-59.735v-59.735h-119.465v-238.935h119.465v-119.465h-119.465v-59.735h119.465v-59.735h59.735v59.735h119.467l-0.002 238.935h-119.465zM484.265 480h-59.735v119.465h59.735v-119.465zM603.737 300.8h-59.737v119.465h59.737v-119.465z" />
<glyph unicode="&#xe628;" glyph-name="like" horiz-adv-x="878" d="M185.69 162.46q0 12.857-9.397 22.254t-22.254 9.397-22.254-9.397-9.397-22.254 9.397-22.254 22.254-9.397 22.254 9.397 9.397 22.254zM755.359 447.295q0 25.219-19.286 44.259t-44.010 19.040h-174.067q0 28.683 23.737 78.875t23.737 79.367q0 48.46-15.826 71.704t-63.295 23.241q-12.857-12.857-18.79-42.031t-15.081-62.061-29.424-54.147q-10.879-11.375-38.076-45-1.978-2.473-11.375-14.835t-15.576-20.276-17.061-21.018-19.781-21.759-19.040-17.554-19.781-13.353-17.554-4.451h-15.826v-316.482h15.826q6.429 0 15.576-1.482t16.317-3.214 18.79-5.439 17.308-5.687 17.554-6.183 14.339-5.192q104.339-36.098 169.121-36.098h59.835q94.946 0 94.946 82.581 0 12.857-2.473 27.692 14.835 7.911 23.49 25.96t8.653 36.347-8.902 34.121q26.21 24.724 26.21 58.847 0 12.362-4.946 27.446t-12.362 23.49q15.826 0.495 26.455 23.241t10.633 40.054zM818.657 447.79q0-44.010-24.232-80.603 4.451-16.317 4.451-34.121 0-38.076-18.79-71.21 1.482-10.384 1.482-21.263 0-49.946-29.67-88.022 0.495-68.737-42.031-108.545t-112.254-39.808h-63.79q-47.473 0-93.71 11.125t-107.061 32.389q-57.362 19.781-68.241 19.781h-142.418q-26.21 0-44.754 18.545t-18.545 44.754v316.482q0 26.21 18.545 44.754t44.754 18.545h135.495q17.803 11.867 67.746 76.647 28.683 37.089 52.911 63.295 11.867 12.362 17.554 42.281t15.081 62.554 30.661 53.406q19.286 18.296 44.505 18.296 41.54 0 74.67-16.071t50.438-50.192 17.308-91.978q0-45.99-23.737-94.946h87.031q51.429 0 89.010-37.581t37.581-88.518z" />
<glyph unicode="&#xe629;" glyph-name="unlike" horiz-adv-x="878" d="M185.69 669.54q0 12.857-9.397 22.254t-22.254 9.397-22.254-9.397-9.397-22.254 9.397-22.254 22.254-9.397 22.254 9.397 9.397 22.254zM755.359 384.704q0 17.308-10.633 40.054t-26.455 23.241q7.419 8.406 12.362 23.49t4.946 27.446q0 34.121-26.21 58.847 8.902 15.826 8.902 34.121t-8.653 36.347-23.49 25.96q2.473 14.835 2.473 27.692 0 42.031-24.232 62.308t-67.254 20.276h-63.296q-64.781 0-169.121-36.098-2.473-0.99-14.339-5.192t-17.554-6.183-17.308-5.687-18.79-5.439-16.317-3.214-15.576-1.482h-15.826v-316.482h15.826q7.911 0 17.554-4.451t19.781-13.353 19.040-17.554 19.781-21.759 17.061-21.018 15.576-20.276 11.375-14.835q27.197-33.625 38.076-45 20.276-21.263 29.424-54.147t15.081-62.061 18.79-42.031q47.473 0 63.296 23.241t15.826 71.704q0 29.174-23.737 79.367t-23.737 78.875h174.067q24.724 0 44.010 19.040t19.286 44.259zM818.658 384.21q0-50.933-37.581-88.518t-89.010-37.581h-87.031q23.737-48.955 23.737-94.946 0-58.353-17.308-91.978-17.308-34.121-50.439-50.192t-74.67-16.071q-25.219 0-44.505 18.296-16.813 16.317-26.704 40.549t-12.611 44.754-8.653 41.786-15.33 31.647q-23.737 24.724-52.911 62.803-49.946 64.781-67.746 76.647h-135.495q-26.21 0-44.754 18.545t-18.545 44.754v316.482q0 26.21 18.545 44.754t44.754 18.545h142.419q10.879 0 68.241 19.781 63.296 21.759 110.276 32.638t98.902 10.879h55.384q69.232 0 112.005-39.067t42.281-106.813v-2.473q29.67-38.076 29.67-88.022 0-10.879-1.482-21.263 18.79-33.133 18.79-71.21 0-17.803-4.451-34.121 24.232-36.594 24.232-80.603z" />
<glyph unicode="&#xe62a;" glyph-name="clip" horiz-adv-x="805" d="M802.286 152.571q0-66.857-45.143-112t-112-45.143q-77.143 0-134.286 57.143l-444 443.429q-64.571 65.714-64.571 154.857 0 90.857 62.857 154.286t153.714 63.429q90.286 0 156-64.571l345.714-346.286q5.714-5.714 5.714-12.571 0-9.143-17.429-26.571t-26.571-17.429q-7.429 0-13.143 5.714l-346.286 346.857q-45.143 44-103.429 44-60.571 0-102.286-42.857t-41.714-103.429q0-60 43.429-103.429l443.429-444q36-36 82.857-36 36.571 0 60.571 24t24 60.571q0 46.857-36 82.857l-332 332q-14.857 13.714-34.286 13.714-16.571 0-27.429-10.857t-10.857-27.429q0-18.286 14.286-33.714l234.286-234.286q5.714-5.714 5.714-12.571 0-9.143-17.714-26.857t-26.857-17.714q-6.857 0-12.571 5.714l-234.286 234.286q-36 34.857-36 85.143 0 46.857 32.571 79.429t79.429 32.571q50.286 0 85.143-36l332-332q57.143-56 57.143-134.286z" />
<glyph unicode="&#xe62d;" glyph-name="unzip" d="M229.714 556l282.286-174.286-195.429-162.857-280 182.286zM793.143 238.857v-61.714l-280-167.429v-0.571l-0.571 0.571-0.571-0.571v0.571l-279.429 167.429v61.714l84-54.857 195.429 162.286v1.143l0.571-0.571 0.571 0.571v-1.143l196-162.286zM316.571 892.571l195.429-162.857-282.286-173.714-193.143 154.286zM794.286 556l193.143-154.857-279.429-182.286-196 162.857zM708 892.571l279.429-182.286-193.143-154.286-282.286 173.714z" />
<glyph unicode="&#xe638;" glyph-name="portfolio" d="M64 0v896h896v-896h-896zM904 840h-784v-672h784v672zM456 417.376v11.376q-58.624 19.25-85.312 78.75t-26.688 144.376q0 64.75 46.812 98.436t121.188 33.688 121.188-33.688 46.812-98.436q0-189.876-112-224v-10.5q98.876-8.75 160.564-46.376t63.436-99.75q0-8.75-7.436-15.75t-22.75-11.812-31.5-8.312-41.124-5.688-43.75-3.5-47.688-1.75-44.188-0.436h-83.124t-44.188 0.436-47.688 1.75-43.75 3.5-41.124 5.688-31.5 8.312-22.75 11.812-7.436 15.75q1.75 62.124 63.436 99.75t160.564 46.376z" />
<glyph unicode="&#xe639;" glyph-name="database" d="M512 0q-121.624 0-224.876 14.876t-163.188 40.688-59.936 56.436v112q0 7 5.25 16.624 54.25-32.376 177.188-52.5t265.564-20.124 265.564 20.124 177.188 52.5q5.25-9.624 5.25-16.624v-112q0-30.624-59.936-56.436t-163.188-40.688-224.876-14.876zM512 224q-121.624 0-224.876 14.876t-163.188 40.688-59.936 56.436v112q0 7 5.25 16.624 54.25-32.376 177.188-52.5t265.564-20.124 265.564 20.124 177.188 52.5q5.25-9.624 5.25-16.624v-112q0-30.624-59.936-56.436t-163.188-40.688-224.876-14.876zM512 448q-121.624 0-224.876 14.876t-163.188 40.688-59.936 56.436v112q0 7 5.25 16.624 54.25-32.376 177.188-52.5t265.564-20.124 265.564 20.124 177.188 52.5q5.25-9.624 5.25-16.624v-112q0-30.624-59.936-56.436t-163.188-40.688-224.876-14.876zM512 672q-121.624 0-224.876 14.876t-163.188 40.688-59.936 56.436 59.936 56.436 163.188 40.688 224.876 14.876 224.876-14.876 163.188-40.688 59.936-56.436-59.936-56.436-163.188-40.688-224.876-14.876z" />
<glyph unicode="&#xe63a;" glyph-name="template" d="M848 0h-672q-46.376 0-79.188 32.812t-32.812 79.188v672q0 46.376 32.812 79.188t79.188 32.812h672q46.376 0 79.188-32.812t32.812-79.188v-672q0-46.376-32.812-79.188t-79.188-32.812zM176 140q0-11.376 8.312-19.688t19.688-8.312h308v392h-336v-364zM512 784h-308q-11.376 0-19.688-8.312t-8.312-19.688v-140h336v168zM848 756q0 11.376-8.312 19.688t-19.688 8.312h-196v-672h196q11.376 0 19.688 8.312t8.312 19.688v616z" />
<glyph unicode="&#xe63f;" glyph-name="rss" d="M183.258 238.938c-65.796 0-119.256-53.666-119.256-119.068 0-65.758 53.464-118.826 119.256-118.826 66.034 0 119.434 53.068 119.434 118.826-0.002 65.398-53.396 119.068-119.434 119.068zM64.136 591.562v-171.726c111.812 0 216.962-43.724 296.15-122.948 79.086-79.030 122.746-184.656 122.746-296.888h172.482c-0.002 326.216-265.37 591.562-591.378 591.562zM64.34 896v-171.812c398.81 0 723.412-324.918 723.412-724.188h172.248c0 493.91-401.846 896-895.66 896z" />
<glyph unicode="&#xe643;" glyph-name="info" d="M512 896c-247.422 0-448-200.578-448-448s200.578-448 448-448 448 200.578 448 448-200.578 448-448 448zM512 84c-201.030 0-364 162.97-364 364s162.97 364 364 364 364-162.97 364-364-162.97-364-364-364zM456 672h112v-112h-112zM624 224h-224v56h56v168h-56v56h168v-224h56z" />
<glyph unicode="&#xe644;" glyph-name="warning" d="M512 757.116l-301.73-645.116h603.46l-301.73 645.116zM512 896v0c19.31 0 38.624-13.022 53.272-39.068l382.439-762.224c29.302-52.092 4.376-94.71-55.39-94.71h-760.644c-59.766 0-84.69 42.62-55.392 94.71l382.439 762.224c14.652 26.046 33.962 39.068 53.272 39.068zM456 224c0 30.926 25.074 56 56 56s56-25.074 56-56c0-30.926-25.074-56-56-56s-56 25.074-56 56zM512 560c30.926 0 56-25.074 56-56l-17.5-168h-77l-17.5 168c0 30.926 25.074 56 56 56z" />
<glyph unicode="&#xe646;" glyph-name="color" d="M512 768c-212.053 0-384-171.947-384-384s171.947-384 384-384c35.413 0 64 28.587 64 64 0 16.64-6.187 31.573-16.64 42.88-10.027 11.307-16 26.027-16 42.453 0 35.413 28.587 64 64 64h75.307c117.76 0 213.333 95.573 213.333 213.333 0 188.587-171.947 341.333-384 341.333zM277.333 384c-35.413 0-64 28.587-64 64s28.587 64 64 64 64-28.587 64-64-28.587-64-64-64zM405.333 554.667c-35.413 0-64 28.587-64 64s28.587 64 64 64 64-28.587 64-64-28.587-64-64-64zM618.667 554.667c-35.413 0-64 28.587-64 64s28.587 64 64 64 64-28.587 64-64-28.587-64-64-64zM746.667 384c-35.413 0-64 28.587-64 64s28.587 64 64 64 64-28.587 64-64-28.587-64-64-64z" />
<glyph unicode="&#xe647;" glyph-name="tip" d="M385.888 5.184c35.348-22.848 76.294-38.304 126.112-37.094 49.818-1.21 90.72 14.246 126.067 37.094v92.736h-252.176v-92.736zM632.78 151.728c0 195.148 207.468 257.6 191.921 451.984-9.766 122.662-92.87 260.288-312.704 260.288s-302.938-137.626-312.704-260.288c-15.546-194.432 191.878-256.838 191.878-451.984h241.606zM294.182 596.634c9.318 116.435 88.522 175.482 217.818 175.482s208.496-59.046 217.772-175.482c5.062-63.75-31.584-106.266-81.088-175.884-36.422-51.34-79.52-111.955-99.68-190.892l-74.054 0.002c-20.16 78.938-63.212 139.506-99.724 190.892-49.46 69.664-86.106 112.132-81.044 175.882z" />
<glyph unicode="&#xe648;" glyph-name="favorite" d="M848 0h-672q-22.75 0-39.376 16.188t-16.624 39.812v783.124q0 23.624 16.624 39.812t39.376 16.188h392v-308q0-11.376 8.312-19.688t19.688-8.312h308v-503.124q0-23.624-16.188-39.812t-39.812-16.188zM467.376 353.5l-67.376 150.5-67.376-150.5-156.624-21 115.5-113.75-29.75-162.75 138.25 79.624 138.25-79.624-29.75 162.75 115.5 113.75zM624 896q22.75 0 38.5-15.75l224.876-224.876q16.624-16.624 16.624-40.25h-280v280.876z" />
<glyph unicode="&#xe649;" glyph-name="write" d="M904 0h-672q-22.75 0-39.376 16.188t-16.624 39.812v315l244.124-243.25q15.75-16.624 40.25-14.876h107.624q22.75 0 39.376 16.188t16.624 39.812v111.124q0 20.124-16.624 35.876l-431.376 431.376v91.876q0 23.624 16.624 39.812t39.376 16.188h392v-308q0-11.376 7.876-19.688t20.124-8.312h307.124v-503.124q0-23.624-16.188-39.812t-38.936-16.188zM680 896q22.75 0 38.5-15.75l224-224.876q16.624-16.624 16.624-40.25h-279.124v280.876zM133.124 507.5l-59.5 58.624q-9.624 10.5-9.624 24.5t9.624 23.624l48.124 48.124q9.624 9.624 24.064 9.624t24.064-9.624l58.624-58.624zM568 252.876v-56q0-12.25-8.312-20.124t-19.688-7.876h-56q-12.25 0-22.75 9.624l-283.5 283.5 96.25 96.25 283.5-283.5q10.5-10.5 10.5-21.876z" />
<glyph unicode="&#xe64a;" glyph-name="new" d="M847.124 0h-671.124q-23.624 0-39.812 16.188t-16.188 39.812v783.124q0 22.75 16.624 39.376t39.376 16.624h392v-308q0-11.376 7.876-19.688t20.124-8.312h307.124v-502.251q0-23.624-16.188-39.812t-39.812-16.188v-0.876zM624 336h-112v112q0 22.75-16.624 38.936t-39.812 16.188-39.376-16.188-16.188-38.936v-112h-112q-23.624 0-39.812-16.624t-16.188-39.376 16.188-38.936 39.812-16.188h112v-112q0-23.624 16.188-39.812t39.376-16.188 39.812 16.188 16.624 39.812v112h112q22.75 0 39.376 16.188t16.624 38.936-16.624 39.376-39.376 16.624zM624 896q18.376 0 38.5-16.624l224-224.876q16.624-16.624 16.624-40.25h-279.124v281.751z" />
<glyph unicode="&#xe64b;" glyph-name="document" d="M847.124 0h-671.124q-23.624 0-39.812 16.188t-16.188 39.812v783.124q0 23.624 16.188 39.812t39.812 16.188h392v-308q0-11.376 7.876-19.688t20.124-8.312h307.124v-503.124q0-23.624-16.188-39.812t-39.812-16.188zM624 896q21.876 0 38.5-15.75l224-224.876q16.624-16.624 16.624-40.25h-279.124v280.876z" />
<glyph unicode="&#xe64c;" glyph-name="find" d="M848 0h-672q-22.75 0-39.376 16.188t-16.624 39.812v783.124q0 23.624 16.624 39.812t39.376 16.188h392v-308q0-11.376 8.312-19.688t19.688-8.312h308v-503.124q0-23.624-16.188-39.812t-39.812-16.188zM619.624 161.876l-80.5 80.5q28.876 42 28.876 93.624 0 70-49 119t-118.564 49-119-49-49.436-119 49.436-119 118.564-49q51.624 0 93.624 28.876l80.5-80.5q4.376-4.376 10.936-4.376t11.812 4.376l22.75 22.75q4.376 5.25 4.376 11.812t-4.376 10.936zM400 224q-46.376 0-79.188 32.812t-32.812 79.188 32.812 79.188 79.188 32.812 79.188-32.812 32.812-79.188-32.812-79.188-79.188-32.812zM624 896q22.75 0 38.5-15.75l224.876-224.876q16.624-16.624 16.624-40.25h-280v280.876z" />
<glyph unicode="&#xe64d;" glyph-name="pie" horiz-adv-x="960" d="M466.924 352.184l-296.184 296.184c-147.644-170.408-147.644-421.96 0-592.368l296.184 296.184zM508 392v504c-137.368-8.54-261.184-61.040-361.116-142.856l361.116-361.144zM564.056 783.552v-414.736l-290.724-290.724c65.184-47.908 143.724-78.092 230.58-78.092 218.904 0 396.088 177.184 396.088 395.724 0 198.184-146.356 358.736-335.944 387.828z" />
<glyph unicode="&#xe64e;" glyph-name="bars" d="M59.076 124.307h905.845v-113.231h-905.845zM172.307 350.769h113.231v-169.845h-113.231zM342.155 577.231h113.231v-396.307h-113.231zM512 407.385h113.231v-226.462h-113.231zM681.845 747.076h113.231v-566.155h-113.231z" />
<glyph unicode="&#xe64f;" glyph-name="stats" d="M176 112h784v-112h-896v896h112zM316 168c-46.392 0-84 37.608-84 84s37.608 84 84 84c2.476 0 4.918-0.128 7.34-0.338l90.292 150.486c-8.61 13.186-13.632 28.93-13.632 45.85 0 46.392 37.608 84 84 84s84-37.608 84-84c0-16.926-5.024-32.664-13.632-45.85l90.292-150.486c2.422 0.21 4.864 0.338 7.34 0.338 1.868 0 3.716-0.082 5.558-0.202l149.060 260.858c-9.22 13.482-14.618 29.78-14.618 47.346 0 46.392 37.608 84 84 84s84-37.608 84-84c0-46.392-37.608-84-84-84-1.872 0-3.716 0.082-5.558 0.204l-149.060-260.86c9.22-13.482 14.618-29.78 14.618-47.346 0-46.392-37.608-84-84-84s-84 37.608-84 84c0 16.924 5.024 32.664 13.63 45.85l-90.29 150.486c-2.422-0.21-4.864-0.338-7.34-0.338s-4.918 0.126-7.34 0.338l-90.292-150.486c8.61-13.184 13.632-28.928 13.632-45.85 0-46.392-37.608-84-84-84z" />
<glyph unicode="&#xe650;" glyph-name="create-folder" d="M960 0h-896q-27 0-45.5 19t-18.5 45v576h1024v-576q0-26-19-45t-45-19zM896 352q0 13-9.5 22.5t-22.5 9.5h-96v96q0 13-9.5 22.5t-22.5 9.5h-64q-13 0-22.5-9.5t-9.5-22.5v-96h-96q-13 0-22.5-9.5t-9.5-22.5v-64q0-13 9.5-22.5t22.5-9.5h96v-96q0-13 9.5-22.5t22.5-9.5h64q13 0 22.5 9.5t9.5 22.5v96h96q13 0 22.5 9.5t9.5 22.5v64zM0 832q0 26 18.5 45t45.5 19h384q27 0 45.5-18.5t18.5-45.5 18.5-45.5 45.5-18.5h384q26 0 45-19t19-45h-1024v128z" />
<glyph unicode="&#xe651;" glyph-name="folder" d="M960 0h-896q-26 0-45 19t-19 45v576h1024v-576q0-26-19-45t-45-19zM0 704v128q0 27 18.5 45.5t45.5 18.5h384q26 0 45-18.5t19-45.5 18.5-45.5 45.5-18.5h384q26 0 45-19t19-45h-1024z" />
<glyph unicode="&#xe652;" glyph-name="folder-open" d="M0 320v512q0 27 18.5 45.5t45.5 18.5h384q27 0 45.5-18.5t18.5-45 18.5-45.5 45.5-19h256q27 0 45.5-18.5t18.5-45.5v-64h-768zM1024 576l-192-512q0-26-18.5-45t-45.5-19h-704q-27 0-45.5 19t-18.5 45l192 512h832z" />
<glyph unicode="&#xe653;" glyph-name="category" d="M624 252q0 11.376 8.312 19.688t19.688 8.312h112q11.376 0 19.688-8.312t8.312-19.688v-28h140q11.376 0 19.688-8.312t8.312-19.688v-168q0-11.376-8.312-19.688t-19.688-8.312h-280q-11.376 0-19.688 8.312t-8.312 19.688v28h-364q-11.376 0-19.688 8.312t-8.312 19.688v476h-140q-11.376 0-19.688 8.312t-8.312 19.688v280q0 11.376 8.312 19.688t19.688 8.312h168q11.376 0 19.688-8.312t8.312-19.688v-28h140q11.376 0 19.688-8.312t8.312-19.688v-224q0-11.376-8.312-19.688t-19.688-8.312h-140v-112h336v140q0 11.376 8.312 19.688t19.688 8.312h112q11.376 0 19.688-8.312t8.312-19.688v-28h140q11.376 0 19.688-8.312t8.312-19.688v-168q0-11.376-8.312-19.688t-19.688-8.312h-280q-11.376 0-19.688 8.312t-8.312 19.688v28h-336v-280h336v140z" />
<glyph unicode="&#xe654;" glyph-name="board" horiz-adv-x="1152" d="M1023.968 107.502c0-39.808 22.772-74.288 55.996-91.156v-13.946c-9.298-1.273-18.788-1.945-28.436-1.945-59.504 0-113.172 24.96-151.122 64.976-22.942-6.11-47.25-9.408-72.426-9.408-139.166 0-251.984 100.283-251.984 223.984s112.818 223.984 251.984 223.984c139.166 0 251.984-100.283 251.984-223.984 0-48.428-17.292-93.26-46.684-129.898-5.972-12.971-9.312-27.396-9.312-42.608zM273.862 702.446c-57.934-47.070-89.838-107.604-89.838-170.45 0-35.258 9.788-69.45 29.092-101.626 19.908-33.176 49.855-63.51 86.608-87.716 26.56-17.492 44.428-45.452 49.152-76.902 1.576-10.484 2.561-21.076 2.95-31.608 6.534 5.418 12.906 11.238 19.144 17.476 21.134 21.132 49.68 32.802 79.183 32.802 4.696 0 9.417-0.294 14.136-0.896 18.328-2.33 37.048-3.512 55.642-3.516v-111.992c-23.736 0.002-47.030 1.522-69.77 4.41-96.226-96.226-211.078-113.48-322.132-116.012v23.549c59.964 29.378 111.992 82.892 111.992 144.048 0 8.534-0.662 16.914-1.892 25.108-101.316 66.728-166.096 168.65-166.096 282.872 0 201.018 200.562 363.976 447.968 363.976 243.634 0 441.838-158.026 447.826-354.805-35.956 16.024-75.104 25.742-115.722 28.502-10.089 49.056-39.724 95.208-85.964 132.776-30.906 25.11-67.296 44.962-108.168 59.008-43.49 14.944-89.908 22.522-137.974 22.522-48.064 0-94.484-7.578-137.974-22.522-40.872-14.046-77.262-33.9-108.168-59.008z" />
<glyph unicode="&#xe655;" glyph-name="comments" d="M512 725.312c-47.604 0-93.584-7.506-136.658-22.309-40.48-13.914-76.526-33.576-107.136-58.448-57.382-46.622-88.982-106.58-88.982-168.826 0-34.922 9.696-68.79 28.816-100.657 19.716-32.86 49.382-62.902 85.784-86.88 26.308-17.324 44.007-45.020 48.684-76.17 1.56-10.384 2.536-20.876 2.922-31.304 6.474 5.366 12.782 11.134 18.96 17.312 20.932 20.932 49.204 32.49 78.43 32.49 4.652 0 9.326-0.292 14-0.888 18.177-2.31 36.742-3.484 55.181-3.484 47.606 0 93.584 7.504 136.658 22.309 40.48 13.914 76.526 33.576 107.136 58.448 57.382 46.62 88.982 106.58 88.982 168.826s-31.6 122.204-88.982 168.826c-30.61 24.87-66.656 44.534-107.136 58.448-43.074 14.8-89.052 22.309-136.658 22.309zM512 836.24v0c245.050 0 443.7-161.406 443.7-360.508 0-199.104-198.65-360.508-443.7-360.508-23.532 0-46.632 1.502-69.176 4.372-95.306-95.306-209.070-112.4-319.064-114.908v23.324c59.392 29.098 110.924 82.103 110.924 142.676 0 8.454-0.658 16.75-1.876 24.868-100.348 66.092-164.512 167.042-164.512 280.176 0 199.102 198.65 360.508 443.7 360.508z" />
<glyph unicode="&#xe657;" glyph-name="customer" d="M332.8 716.8c0 98.968 80.232 179.2 179.2 179.2s179.2-80.232 179.2-179.2c0-98.968-80.232-179.2-179.2-179.2s-179.2 80.232-179.2 179.2zM751.006 477.865h-33.061l-185.829-377.293 69.485 347.428-89.6 89.6-89.6-89.6 69.485-347.428-185.827 377.293h-33.061c-119.396 0-119.396-80.255-119.396-179.2v-298.665h716.8v298.665c0 98.945 0 179.2-119.394 179.2z" />
<glyph unicode="&#xe659;" glyph-name="unlock" d="M512 210.857c45.463 0 82.285 36.823 82.285 82.285s-36.823 82.285-82.285 82.285-82.285-36.823-82.285-82.285 36.823-82.285 82.285-82.285zM758.857 581.143h-41.143v82.285c0 113.554-92.16 205.714-205.714 205.714s-205.714-92.16-205.714-205.714h78.172c0 70.354 57.189 127.543 127.543 127.543s127.543-57.189 127.543-127.543v-82.285h-374.4c-45.463 0-82.285-36.823-82.285-82.285v-411.429c0-45.463 36.823-82.285 82.285-82.285h493.714c45.463 0 82.285 36.823 82.285 82.285v411.429c0 45.463-36.823 82.285-82.285 82.285zM758.857 87.429h-493.714v411.429h493.714v-411.429z" />
<glyph unicode="&#xe65a;" glyph-name="lock" d="M758.857 581.143h-41.143v82.285c0 113.554-92.16 205.714-205.714 205.714s-205.714-92.16-205.714-205.714v-82.285h-41.143c-45.463 0-82.285-36.823-82.285-82.285v-411.429c0-45.463 36.823-82.285 82.285-82.285h493.714c45.463 0 82.285 36.823 82.285 82.285v411.429c0 45.463-36.823 82.285-82.285 82.285zM512 790.972c70.354 0 127.543-57.189 127.543-127.543v-82.285h-250.972v82.285h-4.115c0 70.354 57.189 127.543 127.543 127.543zM758.857 87.429h-493.714v411.429h493.714v-411.429zM512 210.857c45.463 0 82.285 36.823 82.285 82.285s-36.823 82.285-82.285 82.285-82.285-36.823-82.285-82.285 36.823-82.285 82.285-82.285z" />
<glyph unicode="&#xe65b;" glyph-name="aligncenter" d="M316.446 328.331v-78.221h391.108v78.221h-391.108zM160 93.666h704v78.221h-704v-78.221zM160 406.558h704v78.221h-704v-78.221zM316.446 641.219v-78.221h391.108v78.221h-391.108zM160 797.666v-78.221h704v78.221h-704z" />
<glyph unicode="&#xe65e;" glyph-name="import" d="M512 448q-121.624 0-224.876 14.876t-163.188 40.688-59.936 56.436v112q0 7 5.25 16.624 54.25-32.376 177.188-52.5t265.564-20.124 265.564 20.124 177.188 52.5q5.25-9.624 5.25-16.624v-112q0-30.624-59.936-56.436t-163.188-40.688-224.876-14.876zM512 672q-121.624 0-224.876 14.876t-163.188 40.688-59.936 56.436 59.936 56.436 163.188 40.688 224.876 14.876 224.876-14.876 163.188-40.688 59.936-56.436-59.936-56.436-163.188-40.688-224.876-14.876zM470 378.876q17.5 14 41.564 14t41.564-14l165.376-131.25q16.624-14 16.624-33.25t-17.064-32.812-41.124-13.564-41.564 14l-67.376 53.376v-179.376q0-22.75-16.188-39.376t-39.376-16.624-39.812 16.624-16.624 39.376v180.25l-68.25-54.25q-17.5-14-41.564-14t-41.124 13.564-17.064 32.812 16.624 33.25z" />
<glyph unicode="&#xe65f;" glyph-name="export" d="M512 448q-121.624 0-224.876 14.876t-163.188 40.688-59.936 56.436v112q0 7 5.25 15.75 54.25-31.5 177.188-51.624t265.564-20.124 265.564 20.124 177.188 51.624q5.25-8.75 5.25-15.75v-112q0-30.624-59.936-56.436t-163.188-40.688-224.876-14.876zM512 672q-121.624 0-224.876 14.876t-163.188 40.688-59.936 56.436 59.936 56.436 163.188 40.688 224.876 14.876 224.876-14.876 163.188-40.688 59.936-56.436-59.936-56.436-163.188-40.688-224.876-14.876zM387.75 210.876l68.25-54.25v179.376q0 22.75 16.188 39.376t39.812 16.624 39.812-16.624 16.188-39.376v-178.5l67.376 53.376q17.5 14 41.564 14t41.124-14 17.064-33.25-16.624-32.376l-165.376-131.25q-17.5-14-41.564-14t-41.564 14l-165.376 131.25q-16.624 13.124-16.624 32.376t17.064 33.25 41.124 14 41.564-14z" />
<glyph unicode="&#xe664;" glyph-name="move_down" d="M747.52 652.748l-471.040 0.052 235.52-409.6z" />
<glyph unicode="&#xe665;" glyph-name="move_up" d="M276.48 243.2h471.040l-235.572 409.6z" />
<glyph unicode="&#xe666;" glyph-name="move_right" d="M716.748 683.52l0.052-471.040-409.6 235.52z" />
<glyph unicode="&#xe667;" glyph-name="move_left" d="M307.252 683.52l-0.052-471.040 409.6 235.52z" />
<glyph unicode="&#xe668;" glyph-name="move" d="M512 960l-235.52-373.76h470.988l-235.468 373.76zM512.052-64l235.468 373.76-471.040 0.052 235.572-373.812z" />
<glyph unicode="&#xe669;" glyph-name="product" d="M848 448q-46.376 0-79.188 32.812t-32.812 79.188q0-46.376-32.812-79.188t-79.188-32.812-79.188 32.812-32.812 79.188q0-46.376-32.812-79.188t-79.188-32.812-79.188 32.812-32.812 79.188q0-46.376-32.812-79.188t-79.188-32.812-79.188 32.812-32.812 79.188q0 29.75 28 84l80.5 209.124q6.124 18.376 22.75 30.624t33.25 12.25h570.5q17.5 0 33.688-12.25t22.312-30.624l77-209.124q1.75-4.376 8.312-18.812t10.064-22.75 6.564-20.564 3.064-21.876q0-46.376-32.812-79.188t-79.188-32.812zM120 112v224q0 23.624 16.624 39.812t39.376 16.188 39.376-16.188 16.624-39.812v-224h168v224q0 23.624 16.188 39.812t39.812 16.188h112q23.624 0 39.812-16.188t16.188-39.812v-224h168v224q0 23.624 16.624 39.812t39.376 16.188 39.376-16.188 16.624-39.812v-224q22.75 0 39.376-16.188t16.624-39.376-16.624-39.812-39.376-16.624h-784q-22.75 0-39.376 16.624t-16.624 39.812 16.624 39.376 39.376 16.188z" />
<glyph unicode="&#xe66a;" glyph-name="shipping" d="M909.193 173.538h-72.538q15.924-27.424 15.924-56.614 0-46.885-33.174-80.057t-80.057-33.174-80.057 33.174-33.174 80.057q0 29.193 15.924 56.614h-258.307q15.924-27.424 15.924-56.614 0-46.885-33.174-80.057t-80.057-33.174-80.057 33.174-33.174 80.057q0 29.193 15.924 56.614h-72.538q-23 0-39.807 16.364t-16.807 40.25v224.693q-0.885 25.655 16.807 44.231l110.576 110.576q19.462 18.576 46.885 16.807h165.424v56.614q0 23.885 16.807 40.25t39.807 16.364h452.924q23 0 39.807-16.807t16.807-39.807v-452.924q0-23-16.364-39.807t-40.25-16.807zM399.655 541.538q0 11.5-8.405 19.905t-19.905 8.405h-138.885l-115.885-115.885v-82.269q0-11.5 8.405-19.905t19.905-8.405h226.462q11.5 0 19.905 8.405t8.405 19.905v169.845z" />
<glyph unicode="&#xe66b;" glyph-name="addtocart" d="M904.008 448h-784.012q-22.752 0-39.376 16.188t-16.624 39.376 16.188 39.812 39.812 16.624h49q17.5-26.252 45.064-41.124t59.94-14.876 59.94 14.876 45.064 41.124h266.004q17.5-26.252 45.064-41.124t59.94-14.876 59.94 14.876 45.064 41.124h49q23.624 0 39.812-16.624t16.188-39.812-16.624-39.376-39.376-16.188zM769.256 565.252q-16.624-9.624-35-4.376t-28 21.876l-132.128 243.254q-9.624 16.624-4.812 35.439t21.437 28.438 35 4.376 28-21.876l132.128-243.254q9.624-16.624 4.812-35.439t-21.437-28.438zM317.748 582.752q-9.624-16.624-28-21.876t-35 4.376-21.437 28.438 4.812 35.439l132.128 243.254q9.624 16.624 28 21.876t35-4.376 21.437-28.438-4.812-35.439zM848.004 55.992q-7-35-25.812-45.5t-57.312-10.5h-502.26q-39.376 0-59.5 10.5t-27.124 45.5l-56 336.004h784.012zM708.004 223.996h-84v84q0 11.376-8.312 19.688t-19.688 8.312-19.688-8.312-8.312-19.688v-84h-84q-11.376 0-19.688-8.312t-8.312-19.688 8.312-19.688 19.688-8.312h84v-84q0-11.376 8.312-19.688t19.688-8.312 19.688 8.312 8.312 19.688v84h84q11.376 0 19.688 8.312t8.312 19.688-8.312 19.688-19.688 8.312z" />
<glyph unicode="&#xe66d;" glyph-name="billing" d="M925.869 107.446h-400.507c11.743 20.247 20.736 42.191 26.685 65.411h373.82c18.085 0 32.705-14.62 32.705-32.705 0-18.054-14.62-32.705-32.705-32.705zM925.869 205.562h-367.474c1.34 10.727 2.258 21.616 2.258 32.705 0 11.119-0.916 21.979-2.258 32.705h367.474c18.085 0 32.705-14.62 32.705-32.705 0-18.054-14.62-32.705-32.705-32.705zM925.869 303.678h-373.82c-5.984 23.221-14.948 45.166-26.685 65.411h400.507c18.085 0 32.705-14.62 32.705-32.705 0-18.054-14.62-32.705-32.705-32.705zM925.869 401.794h-422.813c-21.259 26.523-47.52 48.828-77.48 65.411h500.292c18.085 0 32.705-14.62 32.705-32.705 0-18.054-14.62-32.705-32.705-32.705zM925.869 499.909h-523.284c-18.085 0-32.705 14.651-32.705 32.705 0 18.085 14.62 32.705 32.705 32.705h523.284c18.085 0 32.705-14.62 32.705-32.705 0-18.054-14.62-32.705-32.705-32.705zM925.869 598.023h-523.284c-18.085 0-32.705 14.651-32.705 32.705 0 18.085 14.62 32.705 32.705 32.705h523.284c18.085 0 32.705-14.62 32.705-32.705 0-18.054-14.62-32.705-32.705-32.705zM533.408 238.267c0-126.436-102.531-228.937-228.937-228.937-126.436 0-228.937 102.498-228.937 228.937s102.498 228.937 228.937 228.937c126.405 0 228.937-102.498 228.937-228.937zM385.514 213.377c-3.302 7.818-7.553 14.62-12.887 20.408s-11.381 10.762-18.183 14.913c-6.803 4.154-13.737 7.85-20.835 11.151-7.097 3.271-14.032 6.345-20.835 9.289-6.803 2.912-12.918 6.050-18.284 9.387-5.395 3.337-9.68 7.164-12.887 11.446-3.204 4.284-4.809 9.353-4.809 15.24 0 3.925 0.72 7.654 2.125 11.185 1.44 3.499 3.598 6.54 6.54 9.061 2.912 2.484 6.572 4.482 10.924 5.887 4.349 1.44 9.484 2.125 15.341 2.125 7.49 0 14.359-0.885 20.635-2.713 6.246-1.866 11.775-3.859 16.548-6.116 4.775-2.223 8.799-4.284 12.069-6.183s5.657-2.813 7.164-2.813 2.682 0.393 3.567 1.21c0.851 0.818 1.57 2.094 2.028 3.893 0.49 1.767 0.786 4.022 1.012 6.737 0.195 2.748 0.296 6.116 0.296 10.073 0 3.532-0.065 6.509-0.195 8.863-0.132 2.387-0.393 4.383-0.686 5.953-0.358 1.57-0.752 2.847-1.21 3.794-0.523 0.95-1.405 2.094-2.782 3.433-1.374 1.374-4.154 3.075-8.372 5.069-4.219 2.028-9.061 3.859-14.487 5.463-5.463 1.636-11.316 2.912-17.563 3.859-1.277 0.195-2.586 0.132-3.859 0.296v33.818h-32.183v-33.818c-5.919-0.786-11.641-1.962-17.201-3.567-10.825-3.139-20.212-7.85-28.193-14.195s-14.324-14.324-19.001-23.876c-4.71-9.616-7.031-20.736-7.031-33.391 0-11.023 1.636-20.507 4.875-28.388 3.271-7.881 7.522-14.75 12.787-20.538 5.265-5.79 11.185-10.727 17.857-14.881 6.673-4.185 13.571-7.881 20.635-11.151 7.097-3.271 13.966-6.345 20.635-9.289s12.622-6.082 17.857-9.387c5.265-3.368 9.515-7.164 12.787-11.446 3.271-4.318 4.906-9.453 4.906-15.437 0-5.201-0.95-9.909-2.847-14.16-1.931-4.219-4.676-7.753-8.274-10.628-3.598-2.878-7.981-5.069-13.147-6.638-5.201-1.57-11.023-2.355-17.595-2.355-9.943 0-18.706 1.113-26.262 3.368-7.553 2.258-14.063 4.744-19.526 7.49-5.463 2.713-9.909 5.166-13.377 7.456-3.465 2.223-6.147 3.368-8.078 3.368-1.374 0-2.586-0.393-3.567-1.113-1.046-0.752-1.866-2.028-2.452-3.794-0.623-1.799-1.046-4.087-1.34-6.966s-0.424-6.41-0.424-10.628c0-6.28 0.393-11.088 1.113-14.422 0.752-3.368 2.028-5.919 3.794-7.654 1.767-1.767 4.644-3.763 8.667-6.082s9.025-4.482 15.013-6.572c5.984-2.060 12.918-3.859 20.736-5.364 7.818-1.471 16.322-2.192 25.444-2.192 0.393 0 0.752 0.065 1.176 0.065v-31.494h32.148v35.715c1.538 0.393 3.173 0.588 4.676 1.012 11.84 3.532 22.209 8.831 31.070 15.831 8.863 7 15.862 15.731 21.063 26.231 5.166 10.496 7.718 22.663 7.718 36.563 0.031 10.563-1.604 19.755-4.84 27.603zM503.057 74.742h422.813c18.085 0 32.705-14.62 32.705-32.705 0-18.054-14.62-32.705-32.705-32.705h-500.292c29.958 16.582 56.222 38.888 77.48 65.411z" />
<glyph unicode="&#xe66e;" glyph-name="calculator" d="M848 0h-672q-46.376 0-79.188 32.812t-32.812 79.188v672q0 46.376 32.812 79.188t79.188 32.812h672q46.376 0 79.188-32.812t32.812-79.188v-672q0-46.376-32.812-79.188t-79.188-32.812zM428 672h-84v84q0 11.376-8.312 19.688t-19.688 8.312-19.688-8.312-8.312-19.688v-84h-84q-11.376 0-19.688-8.312t-8.312-19.688 8.312-19.688 19.688-8.312h84v-84q0-11.376 8.312-19.688t19.688-8.312 19.688 8.312 8.312 19.688v84h84q11.376 0 19.688 8.312t8.312 19.688-8.312 19.688-19.688 8.312zM449.436 385.436q-6.564 6.564-16.188 6.564t-16.624-6.124l-100.624-100.624-100.624 100.624q-7 6.124-16.624 6.124t-16.188-6.564-6.564-16.188 6.124-16.624l100.624-100.624-99.75-99.75q-7-7-7-16.624t7-16.624 16.624-7 16.624 7l99.75 99.75 99.75-99.75q7-7 16.624-7t16.624 7 7 16.624-7 16.624l-99.75 99.75 100.624 100.624q6.124 7 6.124 16.624t-6.564 16.188zM820 672h-224q-11.376 0-19.688-8.312t-8.312-19.688 8.312-19.688 19.688-8.312h224q11.376 0 19.688 8.312t8.312 19.688-8.312 19.688-19.688 8.312zM820 336h-224q-11.376 0-19.688-8.312t-8.312-19.688 8.312-19.688 19.688-8.312h224q11.376 0 19.688 8.312t8.312 19.688-8.312 19.688-19.688 8.312zM820 224h-224q-11.376 0-19.688-8.312t-8.312-19.688 8.312-19.688 19.688-8.312h224q11.376 0 19.688 8.312t8.312 19.688-8.312 19.688-19.688 8.312z" />
<glyph unicode="&#xe670;" glyph-name="payment" d="M876.001 671.999h-727.999c-46.2 0-84-37.8-84-84v-504c0-46.2 37.8-84 84-84h727.999c46.2 0 84 37.8 84 84v504c0 46.2-37.8 84-84 84zM147.999 616h727.999c15.177 0 28.001-12.821 28.001-28.001v-84h-784.001v84c0 15.177 12.821 28.001 28.001 28.001zM876.001 56.001h-727.999c-15.177 0-28.001 12.821-28.001 28.001v252h784.001v-252c0-15.177-12.821-28.001-28.001-28.001zM176 224.001h55.999v-112.001h-55.999zM288.001 224.001h55.999v-112.001h-55.999zM399.999 224.001h55.999v-112.001h-55.999z" />
<glyph unicode="&#xe671;" glyph-name="cart" d="M911.070 720.174c-29.128 8.32-59.494-8.546-67.816-37.676l-4.306-15.070h-511.666l-7.708 61.662c-3.432 27.452-26.77 48.054-54.434 48.054h-137.144c-30.298 0-54.856-24.562-54.856-54.856s24.562-54.856 54.856-54.856h88.716l48.852-390.804c3.432-27.45 26.77-48.054 54.434-48.054h466.284c24.492 0 46.020 16.236 52.746 39.786l109.716 384c8.322 29.13-8.546 59.494-37.676 67.816zM512 448v54.856h109.712v-54.856h-109.712zM621.712 393.144v-54.856h-109.712v54.856h109.712zM512 557.716v54.856h109.712v-54.856h-109.712zM334.142 612.572h123.002v-54.856h-116.146l-6.856 54.856zM347.854 502.856h109.286v-54.856h-102.43l-6.856 54.856zM361.57 393.144h95.574v-54.856h-88.716l-6.856 54.856zM744.908 338.284h-68.34v54.856h84.012l-15.674-54.856zM776.252 448h-99.684v54.856h115.358l-15.674-54.856zM807.6 557.716h-131.032v54.856h146.706l-15.674-54.856zM292.572 91.428c0 45.444 36.841 82.284 82.284 82.284s82.284-36.841 82.284-82.284c0-45.444-36.841-82.284-82.284-82.284s-82.284 36.841-82.284 82.284zM621.716 91.428c0 45.444 36.841 82.284 82.284 82.284s82.284-36.841 82.284-82.284c0-45.444-36.841-82.284-82.284-82.284s-82.284 36.841-82.284 82.284z" />
<glyph unicode="&#xe672;" glyph-name="ticket" horiz-adv-x="1280" d="M1264 224h16v-32c-9.568 0-20.096 0-32 0-35.328 0-64-28.672-64-64 0-11.712 0-22.56 0-32h-1088c0 9.44 0 20.288 0 32 0 35.328-28.672 64-64 64-10.208 0-21.312 0-32 0v32h16c8.832 0 16 7.168 16 16s-7.168 16-16 16h-16v32h16c8.832 0 16 7.168 16 16s-7.168 16-16 16h-16v32h16c8.832 0 16 7.168 16 16s-7.168 16-16 16h-16v32h16c8.832 0 16 7.168 16 16s-7.168 16-16 16h-16v32h16c8.832 0 16 7.168 16 16s-7.168 16-16 16h-16v32h16c8.832 0 16 7.168 16 16s-7.168 16-16 16h-16v32h16c8.832 0 16 7.168 16 16s-7.168 16-16 16h-16v32c9.568 0 20.096 0 32 0 35.328 0 64 28.672 64 64 0 11.712 0 22.56 0 32h1088c0-9.44 0-20.288 0-32 0-35.328 28.672-64 64-64 11.904 0 22.432 0 32 0v-32h-16c-8.832 0-16-7.168-16-16s7.168-16 16-16h16v-32h-16c-8.832 0-16-7.168-16-16s7.168-16 16-16h16v-32h-16c-8.832 0-16-7.168-16-16s7.168-16 16-16h16v-32h-16c-8.832 0-16-7.168-16-16s7.168-16 16-16h16v-32h-16c-8.832 0-16-7.168-16-16s7.168-16 16-16h16v-32h-16c-8.832 0-16-7.168-16-16s7.168-16 16-16h16v-32h-16c-8.832 0-16-7.168-16-16s7.168-16 16-16zM1152 608c0 35.328-28.672 64-64 64h-896c-35.328 0-64-28.672-64-64v-352c0-35.328 28.672-64 64-64h896c35.328 0 64 28.672 64 64v352zM1088 224h-896c-17.696 0-32 14.336-32 32v352c0 17.696 14.304 32 32 32h896c17.664 0 32-14.304 32-32v-352c0-17.664-14.336-32-32-32zM364.384 512.384h-127.136v-18.88h52.864v-141.504h21.248v141.504h52.992v18.88zM408.576 512.384h-21.248v-160.384h21.248v160.384zM472.288 464.32c3.328 9.984 9.184 17.92 17.472 23.808 8.256 5.92 18.56 8.864 30.88 8.864 10.72 0 19.616-2.656 26.688-8 7.104-5.312 12.48-13.824 16.192-25.504l20.864 4.928c-4.288 14.784-11.904 26.272-22.848 34.432s-24.448 12.256-40.48 12.256c-14.144 0-27.104-3.232-38.88-9.696-11.776-6.432-20.832-15.904-27.264-28.352-6.368-12.448-9.568-27.008-9.568-43.68 0-15.328 2.848-29.664 8.512-43.008 5.632-13.376 13.888-23.552 24.672-30.592 10.848-7.040 24.896-10.56 42.176-10.56 16.672 0 30.816 4.576 42.368 13.728s19.552 22.432 24 39.872l-21.248 5.376c-2.912-13.504-8.512-23.68-16.704-30.56-8.256-6.848-18.272-10.272-30.176-10.272-9.76 0-18.848 2.528-27.232 7.552s-14.56 12.64-18.528 22.816-5.984 22.080-5.984 35.744c0.064 10.624 1.728 20.896 5.088 30.848zM747.616 512.384h-28.736l-79.616-79.36v79.36h-21.248v-160.384h21.248v55.616l26.304 25.44 57.056-81.056h28l-70.24 95.36 67.232 65.024zM894.016 370.88h-98.368v54.624h88.64v18.88h-88.64v49.12h94.624v18.88h-115.872v-160.384h119.616v18.88zM1044 512.384h-127.136v-18.88h52.864v-141.504h21.248v141.504h52.992v18.88z" />
<glyph unicode="&#xe673;" glyph-name="currexchange" d="M932 308q-11.376 0-19.688 8.312t-8.312 19.688v0.876q-0.876 26.25-33.688 40.688t-78.312 14.436q-56 0-86.624-56h58.624q11.376 0 19.688-8.312t8.312-19.688-8.312-19.688-19.688-8.312h-77.876q-6.124-27.124-6.124-56h84q11.376 0 19.688-8.312t8.312-19.688-8.312-19.688-19.688-8.312h-77.876q9.624-48.124 35.876-80.064t70-31.936q45.5 0 78.312 14.436t33.688 40.688v0.876q0 11.376 8.312 19.688t19.688 8.312 19.688-8.312 8.312-19.688q0-56-45.5-84t-122.5-28q-72.624 0-112.876 46.812t-50.75 121.188h-32.376q-11.376 0-19.688 8.312t-8.312 19.688 8.312 19.688 19.688 8.312h28q0 28 4.376 56h-32.376q-11.376 0-19.688 8.312t-8.312 19.688 8.312 19.688 19.688 8.312h45.5q40.25 112 150.5 112 77 0 122.5-28t45.5-84q0-11.376-8.312-19.688t-19.688-8.312zM876 560h-56q-11.376 0-19.688 8.312t-8.312 19.688v56q0 11.376-8.312 19.688t-19.688 8.312h-84v-49.876q-8.75-6.124-20.124-6.124t-20.124 6.124l-119 91q-8.75 6.124-8.75 14.876t8.75 14.876l119 91q8.75 6.124 20.124 6.124t20.124-6.124v-49.876h84q63 0 101.5-38.5t38.5-101.5v-56q0-11.376-8.312-19.688t-19.688-8.312zM384.25 62.124q-8.75-6.124-20.124-6.124t-20.124 6.124v49.876h-84q-63 0-101.5 38.5t-38.5 101.5v56q0 11.376 8.312 19.688t19.688 8.312h56q11.376 0 19.688-8.312t8.312-19.688v-56q0-11.376 8.312-19.688t19.688-8.312h84v49.876q8.75 6.124 20.124 6.124t20.124-6.124l119-91q8.75-6.124 8.75-14.876t-8.75-14.876zM260 672q196 0 196-112 0-103.25-168-111.124v-28.876q0-11.376-8.312-19.688t-19.688-8.312-19.688 8.312-8.312 19.688v28.876q-168 7.876-168 111.124 0 11.376 8.312 19.688t19.688 8.312 19.688-8.312 8.312-19.688v-0.876q0.876-27.124 40.688-41.124t99.312-14q60.376 0 100.188 14.436t39.812 41.564-39.812 41.564-100.188 14.436q-196 0-196 112 0 103.25 168 111.124v28.876q0 11.376 8.312 19.688t19.688 8.312 19.688-8.312 8.312-19.688v-28.876q168-7.876 168-111.124 0-11.376-8.312-19.688t-19.688-8.312-19.688 8.312-8.312 19.688v0.876q-0.876 27.124-40.688 41.124t-99.312 14q-60.376 0-100.188-14.436t-39.812-41.564 39.812-41.564 100.188-14.436z" />
<glyph unicode="&#xe674;" glyph-name="fullscreen" d="M1024 960h-416l160-160-192-192 96-96 192 192 160-160zM1024-64v416l-160-160-192 192-96-96 192-192-160-160zM0-64h416l-160 160 192 192-96 96-192-192-160 160zM0 960v-416l160 160 192-192 96 96-192 192 160 160z" />
<glyph unicode="&#xe675;" glyph-name="contract" d="M576 512h416l-160 160 192 192-96 96-192-192-160 160zM576 384v-416l160 160 192-192 96 96-192 192 160 160zM448 384.004h-416l160-160-192-192 96-96 192 192 160-160zM448 512v416l-160-160-192 192-96-96 192-192-160-160z" />
<glyph unicode="&#xe676;" glyph-name="left" d="M319.347 256l0.039 123.954 568.935-0.039v136.434h-568.972l0.039 123.648-183.705-192z" />
<glyph unicode="&#xe677;" glyph-name="right" d="M704.69 256l-0.039 123.954-568.972-0.039v136.434h569.011l-0.039 123.648 183.666-192z" />
<glyph unicode="&#xe678;" glyph-name="drag" d="M1013 426l-198-164q-11-8-29-5t-18 13v114h-193v-192h114q10 0 13.5-18t-5.5-29l-164-198q-9-11-21.5-11t-21.5 11l-164 198q-9 11-5.5 29t12.5 18h114v192h-191v-114q0-9-18-12.5t-29 4.5l-198 165q-11 9-11 21.5t11 21.5l198 164q11 9 29 5.5t18-12.5v-115h191v193h-113q-10 0-13.5 18t5.5 29l164 197q9 12 21.5 12t21.5-12l164-197q9-11 5.5-29t-12.5-18h-115v-193h193v114q0 10 18 13.5t29-5.5l198-164q11-9 11-22t-11-22z" />
<glyph unicode="&#xe679;" glyph-name="signout" d="M157.958 704.455v-616.987h354.042v-89.030h-354.042q-35.196 0-61.079 26.917t-25.879 62.113v616.987q0 35.196 25.879 62.113t61.079 26.917h354.042v-89.030h-354.042zM733.534 617.498l219.466-221.534-219.466-221.534-62.113 64.184 113.875 113.875h-449.283v86.958h449.283l-113.875 115.942z" />
<glyph unicode="&#xe67a;" glyph-name="signin" d="M468.521 617.498l-62.113-62.113 113.875-115.942h-449.283v-86.958h449.283l-113.875-115.942 62.113-62.113 219.466 221.534zM866.042 87.468h-354.042v-89.030h354.042q35.196 0 61.079 25.879t25.879 63.147v616.987q0 37.268-25.879 63.147t-61.079 25.879h-354.042v-89.030h354.042v-616.987z" />
<glyph unicode="&#xe67c;" glyph-name="password" d="M656 768c-132.544 0-240-107.453-240-240 0-15.016 1.395-29.712 4.032-43.968l-292.032-292.032v-144c0-26.508 21.492-48 48-48h48v48h96v96h96v96h96l62.283 62.283c25.504-9.235 53.027-14.283 81.717-14.283 132.544 0 240 107.453 240 240s-107.456 240-240 240zM727.907 527.907c-39.763 0-72 32.237-72 72s32.237 72 72 72 72-32.237 72-72-32.237-72-72-72z" />
<glyph unicode="&#xe67e;" glyph-name="preview" d="M512 896l-448-448h112v-448h672v448h112l-448 448zM736 112h-168v168h-112v-168h-168v401.632l224 158.368 224-158.368v-401.632z" />
<glyph unicode="&#xe680;" glyph-name="tools" d="M889.056 674.048c30.688-74.016 16.064-162.368-44.128-222.56-66.272-66.272-166.432-76.64-244.288-32.704l-56.288-61.472 40.16-40.32 24 24c12.256 12.288 32.16 12.288 44.416 0l194.624-196.608c12.288-12.256 12.288-32.16 0-44.416l-88.832-88.832c-12.256-12.288-32.16-12.288-44.416 0l-194.624 196.608c-12.288 12.256-12.288 32.16 0 44.416l21.92 21.92-38.272 38.368-269.152-294.048c-24.544-24.544-64.32-24.544-88.832 0l-22.208 22.208c-24.544 24.544-24.544 64.32 0 88.832l306.624 256.8-203.648 204.192-64.32 0.032-74.432 119.68 59.904 60 122.4-74.912 0.8-62.976 206.016-206.816 59.936 50.176c-58.592 79.872-52.48 192.384 19.712 264.576 59.904 59.904 147.776 74.784 221.6 44.672l-131.968-130.144 111.072-111.072 132.224 130.4zM196.8 98.112c-12.256 12.256-32.128 12.256-44.416 0-12.288-12.288-12.288-32.16 0-44.448 12.288-12.256 32.16-12.256 44.416 0 12.288 12.32 12.288 32.192 0 44.448z" />
<glyph unicode="&#xe681;" glyph-name="config" d="M382.258 264.204l36.134 50.588-39.598 39.6-50.59-36.134c-9.382 5.246-19.428 9.426-29.982 12.418l-10.222 61.324h-56l-10.22-61.326c-10.554-2.99-20.6-7.174-29.982-12.418l-50.59 36.134-39.6-39.6 36.134-50.588c-5.246-9.38-9.426-19.43-12.418-29.982l-61.326-10.222v-56l61.326-10.222c2.99-10.552 7.174-20.6 12.418-29.982l-36.134-50.588 39.598-39.6 50.59 36.134c9.382-5.246 19.428-9.426 29.982-12.418l10.222-61.324h56l10.22 61.326c10.554 2.99 20.6 7.174 29.982 12.418l50.59-36.134 39.598 39.6-36.134 50.588c5.246 9.38 9.426 19.43 12.418 29.982l61.328 10.22v56l-61.326 10.222c-2.99 10.552-7.174 20.6-12.418 29.982zM260 140c-30.928 0-56 25.074-56 56s25.072 56 56 56 56-25.074 56-56-25.072-56-56-56zM960 560v56l-58.958 10.718c-1.086 7.042-2.478 13.982-4.132 20.818l50.362 32.464-21.432 51.736-58.576-12.66c-3.686 6.046-7.634 11.916-11.804 17.614l34.13 49.298-39.6 39.598-49.298-34.13c-5.698 4.17-11.568 8.116-17.614 11.806l12.66 58.576-51.736 21.434-32.464-50.362c-6.836 1.656-13.776 3.046-20.818 4.132l-10.72 58.958h-56l-10.72-58.958c-7.042-1.086-13.98-2.478-20.818-4.132l-32.462 50.362-51.736-21.432 12.66-58.576c-6.046-3.688-11.916-7.636-17.614-11.806l-49.298 34.13-39.598-39.598 34.13-49.298c-4.17-5.698-8.118-11.568-11.806-17.614l-58.576 12.66-21.432-51.736 50.362-32.464c-1.656-6.836-3.046-13.774-4.132-20.818l-58.96-10.72v-56l58.958-10.718c1.086-7.042 2.478-13.982 4.132-20.818l-50.362-32.464 21.432-51.736 58.576 12.66c3.688-6.046 7.636-11.914 11.806-17.614l-34.13-49.298 39.598-39.6 49.298 34.13c5.698-4.17 11.568-8.116 17.614-11.804l-12.66-58.576 51.736-21.432 32.466 50.362c6.834-1.656 13.774-3.046 20.816-4.132l10.72-58.96h56l10.72 58.958c7.040 1.086 13.98 2.478 20.818 4.132l32.464-50.362 51.736 21.432-12.66 58.576c6.046 3.688 11.916 7.634 17.614 11.804l49.298-34.13 39.6 39.6-34.13 49.298c4.17 5.698 8.116 11.568 11.804 17.614l58.576-12.66 21.432 51.738-50.362 32.464c1.656 6.836 3.046 13.774 4.132 20.818l58.958 10.718zM652 466.2c-67.27 0-121.8 54.53-121.8 121.8s54.53 121.8 121.8 121.8 121.8-54.53 121.8-121.8c0-67.27-54.53-121.8-121.8-121.8z" />
<glyph unicode="&#xe682;" glyph-name="settings" d="M848 504h14c23.1 0 42 18.9 42 42v140c0 23.1-18.9 42-42 42h-14v168h-112v-168h-14c-23.1 0-42-18.9-42-42v-140c0-23.1 18.9-42 42-42h14v-504h112v504zM736 672h112v-112h-112v112zM582 168c23.1 0 42 18.9 42 42v140c0 23.1-18.9 42-42 42h-14v504h-112v-504h-14c-23.1 0-42-18.9-42-42v-140c0-23.1 18.9-42 42-42h14v-168h112v168h14zM456 336h112v-112h-112v112zM302 504c23.1 0 42 18.9 42 42v140c0 23.1-18.9 42-42 42h-14v168h-112v-168h-14c-23.1 0-42-18.9-42-42v-140c0-23.1 18.9-42 42-42h14v-504h112v504h14zM176 672h112v-112h-112v112z" />
<glyph unicode="&#xe683;" glyph-name="pause" d="M512 960c-282.77 0-512-229.23-512-512s229.23-512 512-512 512 229.23 512 512-229.23 512-512 512zM512 32c-229.75 0-416 186.25-416 416s186.25 416 416 416 416-186.25 416-416-186.25-416-416-416zM320 640h128v-384h-128zM576 640h128v-384h-128z" />
<glyph unicode="&#xe684;" glyph-name="stop" d="M512 960c-282.77 0-512-229.23-512-512s229.23-512 512-512 512 229.23 512 512-229.23 512-512 512zM512 32c-229.75 0-416 186.25-416 416s186.25 416 416 416 416-186.25 416-416-186.25-416-416-416zM320 640h384v-384h-384z" />
<glyph unicode="&#xe685;" glyph-name="play" d="M512 960c-282.77 0-512-229.23-512-512s229.23-512 512-512 512 229.23 512 512-229.23 512-512 512zM512 32c-229.75 0-416 186.25-416 416s186.25 416 416 416 416-186.25 416-416-186.25-416-416-416zM384 672l384-224-384-224z" />
<glyph unicode="&#xe686;" glyph-name="thumbnail" d="M63.936-0.064v897h896.124v-897h-896.124zM904.056 840.928h-784.108v-672.968h784.108v672.968zM287.968 784.922q46.38 0 79.2-32.816t32.816-79.2-32.816-79.2-79.2-32.816-79.2 32.38-32.816 78.76v0.876q0 46.38 32.816 79.2t79.2 32.816zM385.108 433.124l208.28-209.155h-417.432v81.388l127.768 127.768q15.752 15.752 40.692 15.752t40.692-15.752zM667.772 601.148q15.752 16.628 40.692 16.628t40.692-16.628l98.888-98.888v-278.288h-178.524q0 0.876-1.312 3.064t-2.188 3.938l-184.652 183.776z" />
<glyph unicode="&#xe687;" glyph-name="gallery" d="M176 0v784h784v-784h-784zM904 728h-672v-560h672v560zM400 672q46.376 0 79.188-32.812t32.812-79.188-32.812-79.188-79.188-32.812-78.75 32.812-33.25 79.188v0.876q0.876 46.376 33.25 78.75t78.75 32.376zM441.124 377.124l152.25-153.124h-305.376v81.376l71.75 71.75q15.75 15.75 40.688 15.75t40.688-15.75zM667.75 489.124q15.75 15.75 40.688 15.75t40.688-15.75l98.876-98.876v-166.25h-175.876l-133.876 133.876zM120 112h-56v784h784v-56h-728v-728z" />
<glyph unicode="&#xe689;" glyph-name="map" d="M672 768l-320 128-352-128v-768l352 128 320-128 352 128v768l-352-128zM384 814.27l256-102.4v-630.138l-256 102.398v630.14zM64 723.172l256 93.090v-631.8l-256-93.088v631.798zM960 172.828l-256-93.092v631.8l256 93.090v-631.798z" />
<glyph unicode="&#xe68c;" glyph-name="host" d="M717.334 700c0-25.76 20.906-46.666 46.666-46.666s46.666 20.906 46.666 46.666-20.906 46.666-46.666 46.666-46.666-20.906-46.666-46.666zM717.334 401.334c0-25.76 20.906-46.666 46.666-46.666s46.666 20.906 46.666 46.666-20.906 46.666-46.666 46.666-46.666-20.906-46.666-46.666zM64 280c0-41.254 33.414-74.666 74.666-74.666h317.334v-51.52c-9.146-6.16-16.986-14-23.146-23.146l-228.854 0.002c-25.76 0-46.666-20.906-46.666-46.666s20.906-46.666 46.666-46.666h228.854c15.12-22.586 40.694-37.334 69.814-37.334s54.694 14.746 69.814 37.334h247.522c25.76 0 46.666 20.906 46.666 46.666s-20.906 46.666-46.666 46.666h-247.52c-6.16 9.146-14 16.986-23.146 23.146v51.518h336c41.254 0 74.666 33.414 74.666 74.666v541.334c0 41.254-33.414 74.666-74.666 74.666h-746.664c-41.256 0-74.666-33.414-74.666-74.666v-541.334zM198.4 802.666h627.2c22.774 0 41.066-18.296 41.066-41.066v-123.2c0-22.774-18.294-41.066-41.066-41.066h-627.2c-22.774 0-41.066 18.296-41.066 41.066v123.2c0 22.774 18.296 41.066 41.066 41.066zM198.4 504h627.2c22.774 0 41.066-18.294 41.066-41.066v-123.2c0-22.774-18.294-41.066-41.066-41.066l-627.2 0.002c-22.774 0-41.066 18.294-41.066 41.064v123.2c0 22.776 18.296 41.066 41.066 41.066z" />
<glyph unicode="&#xe68d;" glyph-name="computer" d="M832 128v-64h64v-64h-320v64h64v64h-192v448h576v-448h-192zM960 512h-448v-320h448v320zM576 256v192h192l-192-192zM0 832h320v-832h-320v832zM64 256h64v64h-64v-64zM64 512h192v64h-192v-64zM64 640h192v64h-192v-64z" />
<glyph unicode="&#xe68e;" glyph-name="ads" d="M1024 530.744c0 200.926-58.792 363.938-131.482 365.226 0.292 0.006 0.578 0.030 0.872 0.030h-82.942c0 0-194.8-146.336-475.23-203.754-8.56-45.292-14.030-99.274-14.030-161.502s5.466-116.208 14.030-161.5c280.428-57.418 475.23-203.756 475.23-203.756h82.942c-0.292 0-0.578 0.024-0.872 0.032 72.696 1.288 131.482 164.298 131.482 365.224zM864.824 220.748c-9.382 0-19.532 9.742-24.746 15.548-12.63 14.064-24.792 35.96-35.188 63.328-23.256 61.232-36.066 143.31-36.066 231.124 0 87.81 12.81 169.89 36.066 231.122 10.394 27.368 22.562 49.266 35.188 63.328 5.214 5.812 15.364 15.552 24.746 15.552 9.38 0 19.536-9.744 24.744-15.552 12.634-14.064 24.796-35.958 35.188-63.328 23.258-61.23 36.068-143.312 36.068-231.122 0-87.804-12.81-169.888-36.068-231.124-10.39-27.368-22.562-49.264-35.188-63.328-5.208-5.806-15.36-15.548-24.744-15.548zM251.812 530.744c0 51.95 3.81 102.43 11.052 149.094-47.372-6.554-88.942-10.324-140.34-10.324-67.058 0-67.058 0-67.058 0l-55.466-94.686v-88.17l55.46-94.686c0 0 0 0 67.060 0 51.398 0 92.968-3.774 140.34-10.324-7.236 46.664-11.048 97.146-11.048 149.096zM368.15 317.828l-127.998 24.51 81.842-321.544c4.236-16.634 20.744-25.038 36.686-18.654l118.556 47.452c15.944 6.376 22.328 23.964 14.196 39.084l-123.282 229.152zM864.824 411.27c-3.618 0-7.528 3.754-9.538 5.992-4.87 5.42-9.556 13.86-13.562 24.408-8.962 23.6-13.9 55.234-13.9 89.078s4.938 65.478 13.9 89.078c4.006 10.548 8.696 18.988 13.562 24.408 2.010 2.24 5.92 5.994 9.538 5.994 3.616 0 7.53-3.756 9.538-5.994 4.87-5.42 9.556-13.858 13.56-24.408 8.964-23.598 13.902-55.234 13.902-89.078 0-33.842-4.938-65.478-13.902-89.078-4.004-10.548-8.696-18.988-13.56-24.408-2.008-2.238-5.92-5.992-9.538-5.992z" />
<glyph unicode="&#xe68f;" glyph-name="radio" horiz-adv-x="1056" d="M992 63.872h-928c-35.328 0-64 28.608-64 63.84v542.848c0 35.296 28.672 63.872 64 63.872h678.016l-264.512 143.776c-5.76-10.592-16.576-18.048-29.504-18.048-18.784 0-33.984 15.2-33.984 33.92s15.2 33.92 33.984 33.92 33.984-15.2 33.984-33.952c0-4.48-0.96-8.672-2.56-12.608l380.576-147.040h132c35.328 0 64-28.608 64-63.872v-542.848c0-35.2-28.672-63.808-64-63.808zM896 159.008c35.328 0 64 28.608 64 63.872s-28.672 63.84-64 63.84c-35.36 0-64-28.608-64-63.84 0-35.296 28.64-63.872 64-63.872zM704 159.648c35.328 0 64 28.608 64 63.872s-28.672 63.84-64 63.84-64-28.608-64-63.84c0-35.264 28.672-63.872 64-63.872zM336 638.624c-132.544 0-240-107.232-240-239.456 0-132.288 107.456-239.488 240-239.488 132.576 0 240 107.232 240 239.488 0 132.224-107.424 239.456-240 239.456zM960 638.624h-320v-95.776h176l32 63.84 32-63.84h80v95.776zM512 351.264h25.888c-2.624-11.040-6.176-21.664-10.496-31.936h-15.392v31.936zM512 415.104h30.368c0.448-5.344 1.632-10.464 1.632-15.936s-1.184-10.624-1.632-15.968h-30.368v31.904zM512 478.976h15.744c4.32-10.176 7.328-20.992 9.984-31.936h-25.728v31.936zM448 510.912v31.936h32v-31.936h-32zM384 223.52h32v-15.328c-10.272-4.256-20.96-7.712-32-10.4v25.728zM384 287.36h32v-31.936h-32v31.936zM384 351.264h32v-31.936h-32v31.936zM384 415.104h32v-31.904h-32v31.904zM384 478.976h32v-31.936h-32v31.936zM384 542.848h32v-31.936h-32v31.936zM384 600.448c11.008-2.688 21.728-6.144 32-10.4v-15.296h-32v25.696zM320 193.28v30.24h32v-30.784c-5.312-0.416-10.56-1.152-16-1.152-5.504 0-10.624 1.248-16 1.696zM320 287.36h32v-31.936h-32v31.936zM320 351.264h32v-31.936h-32v31.936zM320 415.104h32v-31.904h-32v31.904zM320 478.976h32v-31.936h-32v31.936zM320 542.848h32v-31.936h-32v31.936zM320 604.992c5.376 0.448 10.496 1.696 16 1.696 5.44 0 10.688-0.736 16-1.152v-30.784h-32v30.24zM256 223.52h32v-25.472c-10.944 2.72-21.792 5.824-32 10.144v15.328zM256 287.36h32v-31.936h-32v31.936zM256 351.264h32v-31.936h-32v31.936zM256 415.104h32v-31.904h-32v31.904zM256 478.976h32v-31.936h-32v31.936zM256 542.848h32v-31.936h-32v31.936zM256 589.984c10.208 4.384 21.056 7.456 32 10.208v-25.44h-32v15.232zM192 287.36h32v-31.936h-32v31.936zM192 351.264h32v-31.936h-32v31.936zM192 415.104h32v-31.904h-32v31.904zM192 478.976h32v-31.936h-32v31.936zM192 542.848h32v-31.936h-32v31.936zM480 447.040h-32v31.936h32v-31.936zM480 383.2h-32v31.904h32v-31.904zM480 319.328h-32v31.936h32v-31.936zM480 255.424h-32v31.936h32v-31.936zM134.112 351.264h25.888v-31.936h-15.36c-4.32 10.272-7.904 20.896-10.528 31.936zM128 399.168c0 5.472 1.216 10.592 1.632 15.936h30.368v-31.904h-30.368c-0.448 5.344-1.632 10.496-1.632 15.968zM144.256 478.976h15.744v-31.936h-25.728c2.656 10.944 5.664 21.728 9.984 31.936zM256 31.936c0-17.632-14.304-31.936-32-31.936h-64c-17.664 0-32 14.304-32 31.936s0 31.936 0 31.936h128c0 0 0-14.304 0-31.936zM928 31.936c0-17.632-14.304-31.936-32-31.936h-64c-17.696 0-32 14.304-32 31.936s0 31.936 0 31.936h128c0 0 0-14.304 0-31.936z" />
<glyph unicode="&#xe690;" glyph-name="song" d="M862.336 798.784c-171.584-3.392-370.368-33.12-541.984-89.216-0.096 1.12 0.64-509.696 0.64-509.696-30.976 7.008-65.984 2.944-102.752-13.824-68.224-31.008-105.44-93.696-83.104-140 22.336-46.368 95.744-58.816 163.968-27.744 62.368 33.44 82.432 63.68 84.48 107.424l1.536 442.624c135.232 39.776 278.24 63.36 413.536 70.656v-395.712c-31.328 7.68-72.832 3.808-110.432-13.248-68.224-31.072-105.44-93.76-83.104-140.064 22.336-46.368 95.744-58.752 164-27.744 48.512 22.048 87.328 60.128 94.176 96.928 0.032 0.032-1.632 640.48-0.96 639.616z" />
<glyph unicode="&#xe691;" glyph-name="collapse" horiz-adv-x="805" d="M658.286 422.857v-36.571q0-8-5.143-13.143t-13.143-5.143h-475.429q-8 0-13.143 5.143t-5.143 13.143v36.571q0 8 5.143 13.143t13.143 5.143h475.429q8 0 13.143-5.143t5.143-13.143zM731.429 166.857v475.429q0 37.714-26.857 64.571t-64.571 26.857h-475.429q-37.714 0-64.571-26.857t-26.857-64.571v-475.429q0-37.714 26.857-64.571t64.571-26.857h475.429q37.714 0 64.571 26.857t26.857 64.571zM804.571 642.286v-475.429q0-68-48.286-116.286t-116.286-48.286h-475.429q-68 0-116.286 48.286t-48.286 116.286v475.429q0 68 48.286 116.286t116.286 48.286h475.429q68 0 116.286-48.286t48.286-116.286z" />
<glyph unicode="&#xe692;" glyph-name="video" d="M0 768v-768h1024v768h-1024zM192 64h-128v128h128v-128zM192 320h-128v128h128v-128zM192 576h-128v128h128v-128zM768 64h-512v640h512v-640zM960 64h-128v128h128v-128zM960 320h-128v128h128v-128zM960 576h-128v128h128v-128zM384 576v-384l256 192z" />
<glyph unicode="&#xe693;" glyph-name="book" d="M848 784v-728h-588c-46.394 0-84 37.608-84 84 0 46.39 37.606 84 84 84h532v672h-560c-61.598 0-112-50.4-112-112v-672c0-61.6 50.402-112 112-112h672v784h-56zM288 168h504v-56h-504z" />
<glyph unicode="&#xe694;" glyph-name="game" d="M1024 256q0-50-5-94t-16-81.5-30.5-59-44.5-21.5q-51 0-97 38t-63 90q-43 128-256 128t-256-128q-17-52-63-90t-97-38q-25 0-44.5 21.5t-30.5 59-16 81.5-5 94q0 46 9.5 101.5t30 118.5 60 116.5 92.5 79.5v32q0 27 18.5 45.5t45.5 18.5h64q26 0 45-18.5t19-45.5h256q0 27 19 45.5t45 18.5h64q26 0 45-18.5t19-45.5v-32q53-26 92.5-79.5t60-116.5 30-118.5 9.5-101.5zM288 512h-32v32q0 13-9.5 22.5t-22.5 9.5-22.5-9.5-9.5-22.5v-32h-32q-13 0-22.5-9.5t-9.5-22.5 9.5-22.5 22.5-9.5h32v-32q0-13 9.5-22.5t22.5-9.5 22.5 9.5 9.5 22.5v32h32q13 0 22.5 9.5t9.5 22.5-9.5 22.5-22.5 9.5zM704 448q-26 0-45-18.5t-19-45 19-45.5 45.5-19 45 19 18.5 45.5-19 45-45 18.5zM768 512.5q0-26.5 18.5-45.5t45-19 45.5 19 19 45.5-19 45-45.5 18.5-45-18.5-18.5-45z" />
<glyph unicode="&#xe695;" glyph-name="event" d="M848 784h-84v-28c0-30.878-25.122-56-56-56s-56 25.122-56 56v28h-280v-28c0-30.878-25.122-56-56-56s-56 25.122-56 56v28h-84c-30.8 0-56-25.2-56-56v-616c0-30.8 25.2-56 56-56h672c30.8 0 56 25.2 56 56v616c0 30.8-25.2 56-56 56zM848 112.1c-0.030-0.036-0.068-0.070-0.1-0.1h-671.798c-0.036 0.030-0.070 0.068-0.098 0.1v503.9h672v-503.9zM316 728c15.464 0 28 12.536 28 28v112c0 15.464-12.536 28-28 28s-28-12.536-28-28v-112c0-15.464 12.536-28 28-28zM708 728c15.464 0 28 12.536 28 28v112c0 15.464-12.536 28-28 28s-28-12.536-28-28v-112c0-15.464 12.536-28 28-28zM568 560h-280v-56h224v-112h-224v-56h224v-112h-224v-56h280zM680 168h56v392h-112v-56h56zM827 35h-630c-30.8 0-56 18.2-56 49v-28c0-30.8 25.2-56 56-56h630c30.8 0 56 25.2 56 56v28c0-30.8-25.2-49-56-49z" />
<glyph unicode="&#xe696;" glyph-name="hotel" horiz-adv-x="802" d="M241.526 240.002v-32q0-6.5-4.748-11.25t-11.25-4.748h-32q-6.5 0-11.25 4.748t-4.748 11.25v32q0 6.5 4.748 11.25t11.25 4.748h32q6.5 0 11.25-4.748t4.748-11.25zM241.526 368v-32q0-6.5-4.748-11.25t-11.25-4.748h-32q-6.5 0-11.25 4.748t-4.748 11.25v32q0 6.5 4.748 11.25t11.25 4.748h32q6.5 0 11.25-4.748t4.748-11.25zM369.524 368v-32q0-6.5-4.748-11.25t-11.25-4.748h-32q-6.5 0-11.25 4.748t-4.748 11.25v32q0 6.5 4.748 11.25t11.25 4.748h32q6.5 0 11.25-4.748t4.748-11.25zM241.526 496.002v-32q0-6.5-4.748-11.25t-11.25-4.748h-32q-6.5 0-11.25 4.748t-4.748 11.25v32q0 6.5 4.748 11.25t11.25 4.748h32q6.5 0 11.25-4.748t4.748-11.25zM625.524 240.002v-32q0-6.5-4.748-11.25t-11.25-4.748h-32q-6.5 0-11.25 4.748t-4.748 11.25v32q0 6.5 4.748 11.25t11.25 4.748h32q6.5 0 11.25-4.748t4.748-11.25zM497.526 368v-32q0-6.5-4.748-11.25t-11.25-4.748h-32q-6.5 0-11.25 4.748t-4.748 11.25v32q0 6.5 4.748 11.25t11.25 4.748h32q6.5 0 11.25-4.748t4.748-11.25zM369.524 496.002v-32q0-6.5-4.748-11.25t-11.25-4.748h-32q-6.5 0-11.25 4.748t-4.748 11.25v32q0 6.5 4.748 11.25t11.25 4.748h32q6.5 0 11.25-4.748t4.748-11.25zM625.524 368v-32q0-6.5-4.748-11.25t-11.25-4.748h-32q-6.5 0-11.25 4.748t-4.748 11.25v32q0 6.5 4.748 11.25t11.25 4.748h32q6.5 0 11.25-4.748t4.748-11.25zM497.526 496.002v-32q0-6.5-4.748-11.25t-11.25-4.748h-32q-6.5 0-11.25 4.748t-4.748 11.25v32q0 6.5 4.748 11.25t11.25 4.748h32q6.5 0 11.25-4.748t4.748-11.25zM625.524 496.002v-32q0-6.5-4.748-11.25t-11.25-4.748h-32q-6.5 0-11.25 4.748t-4.748 11.25v32q0 6.5 4.748 11.25t11.25 4.748h32q6.5 0 11.25-4.748t4.748-11.25zM497.526 63.998h192v576.002h-128.002v-16.002q0-20.002-14-34.002t-34.002-14h-224q-20.002 0-34.002 14t-14 34.002v16.002h-128.002v-576.002h192v112q0 6.5 4.748 11.25t11.25 4.748h160.002q6.5 0 11.25-4.748t4.748-11.25v-112zM497.526 655.998v160.002q0 6.5-4.748 11.25t-11.25 4.748h-32q-6.5 0-11.25-4.748t-4.748-11.25v-48.002h-63.998v48.002q0 6.5-4.748 11.25t-11.25 4.748h-32q-6.5 0-11.25-4.748t-4.748-11.25v-160.002q0-6.5 4.748-11.25t11.25-4.748h32q6.5 0 11.25 4.748t4.748 11.25v48.002h63.998v-48.002q0-6.5 4.748-11.25t11.25-4.748h32q6.5 0 11.25 4.748t4.748 11.25zM753.524 672v-640q0-13.002-9.502-22.498t-22.498-9.502h-640q-13.002 0-22.498 9.502t-9.502 22.498v640q0 13.002 9.502 22.498t22.498 9.502h160.002v144q0 20.002 14 34.002t34.002 14h224q20.002 0 34.002-14t14-34.002v-144h160.002q13.002 0 22.498-9.502t9.502-22.498z" />
<glyph unicode="&#xe697;" glyph-name="edocument" d="M418.24 777.536l-185.472 49.696c-17.056 4.576-34.592-5.568-39.168-22.624l-190.496-710.912c-4.576-17.088 5.568-34.624 22.656-39.232l185.44-49.696c17.056-4.576 34.624 5.568 39.2 22.624l190.496 710.944c4.544 17.056-5.568 34.624-22.656 39.2zM248.96 145.824c-13.728-51.232-66.336-81.6-117.568-67.872s-81.6 66.336-67.872 117.568 66.336 81.632 117.568 67.872c51.232-13.728 81.6-66.368 67.872-117.568zM285.728 282.976l-185.44 49.696 99.36 370.912 185.472-49.728-99.392-370.88zM606.016 208c-26.528 0-48-21.504-48-48s21.472-48 48-48c26.496 0 48 21.504 48 48s-21.504 48-48 48zM345.952 631.264l-123.68 33.12-8.256-30.912 123.648-33.12 8.288 30.912zM321.056 538.528l8.32 30.912-123.648 33.12-8.288-30.912 123.616-33.12zM168.16 215.104c-25.6 6.88-51.936-8.352-58.784-33.952-6.88-25.632 8.32-51.936 33.952-58.784 25.6-6.88 51.936 8.32 58.784 33.952 6.848 25.6-8.352 51.904-33.952 58.784zM958.016 656h-128v-32h128v32zM958.016 528h-128v-32h128v32zM958.016 592h-128v-32h128v32zM894.016 208c-26.528 0-48-21.504-48-48s21.472-48 48-48c26.496 0 48 21.504 48 48s-21.504 48-48 48zM990.016 816h-192c-17.696 0-32-14.304-32-32v-736c0-17.664 14.304-32 32-32h192c17.664 0 32 14.336 32 32v736c0 17.696-14.368 32-32 32zM894.016 64c-53.024 0-96 43.008-96 96 0 53.024 42.976 96 96 96 52.992 0 96-42.976 96-96 0-52.992-43.008-96-96-96zM990.016 304h-192v384h192v-384zM670.016 656h-128v-32h128v32zM670.016 528h-128v-32h128v32zM702.016 816h-192c-17.696 0-32-14.304-32-32v-736c0-17.664 14.304-32 32-32h192c17.664 0 32 14.336 32 32v736c0 17.696-14.368 32-32 32zM606.016 65.984c-53.024 0-96 43.008-96 96 0 53.024 42.976 96 96 96 52.992 0 96-42.976 96-96 0-52.992-43.008-96-96-96zM702.016 304h-192v384h192v-384zM670.016 592h-128v-32h128v32zM180.864 509.856l123.616-33.12 8.32 30.912-123.648 33.12-8.288-30.912z" />
<glyph unicode="&#xe698;" glyph-name="gift" d="M932.36 504.048h-364.312v112.096h364.312q11.384 0 19.704-7.88t8.32-20.144v-56.048q0-11.384-8.32-19.704t-19.704-8.32zM624.096 672.192h-280.24q-46.416 0-79.256 32.84t-32.84 79.256 32.84 79.256 79.256 32.84q47.292 0 70.497-11.824t29.336-35.030 8.32-49.042 16.2-61.74 43.788-66.556v38.096t0.876 35.468 3.064 35.030 5.692 31.088 9.196 28.9 14.012 22.332 19.704 18.392 26.272 10.508 33.28 4.38q46.416 0 79.256-32.84t32.84-79.256-32.84-79.256-79.256-32.84zM343.419 840.336q-23.208 0-39.408-16.2t-16.2-39.408 16.2-39.848 39.408-16.64 39.848 16.64 16.64 39.848-16.64 39.408-39.848 16.2zM623.659 840.336q-23.208 0-39.408-16.2t-16.2-39.408 16.64-39.848 39.408-16.64 39.408 16.64 16.64 39.848-16.64 39.408-39.848 16.2zM455.952 504.048h-364.312q-11.384 0-19.704 8.32t-8.32 19.704v56.048q0 12.26 8.32 20.144t19.704 7.88h364.312v-112.096zM455.952-0.384h-280.24q-23.644 0-39.848 16.64t-16.2 39.408v392.336h336.288v-448.384zM904.336 448v-392.336q0-22.768-16.2-39.408t-39.848-16.64h-280.24v448.384h336.288z" />
<glyph unicode="&#xe69a;" glyph-name="addressbook" d="M904 672c30.926 0 56 25.074 56 56v112h-112v56h-728c-30.8 0-56-25.198-56-56v-784c0-30.8 25.196-56 56-56h728v224h56c30.926 0 56 25.074 56 56v112h-112v56h56c30.926 0 56 25.074 56 56v112h-112v56h56zM568 671.71c61.698 0 111.71-50.016 111.71-111.71s-50.016-111.71-111.71-111.71c-61.698 0-111.71 50.016-111.71 111.71s50.016 111.71 111.71 111.71zM288 56h-56v784h56v-784zM736 224h-336v56c0 61.858 50.144 112 112 112v0h112c61.86 0 112-50.142 112-112v-56z" />
<glyph unicode="&#xe69b;" glyph-name="profile" d="M873.6 729.6h-723.2c-49.72 0-90.4-40.68-90.4-90.4v-542.4c0-49.72 40.68-90.4 90.4-90.4h723.2c49.765 0 90.4 40.68 90.4 90.4v542.4c0 49.72-40.635 90.4-90.4 90.4zM873.6 96.8h-723.2v542.4h723.2v-542.4zM466.8 273.080h-226v-81.36h226v81.36zM466.8 408.68h-226v-81.36h226v81.36zM466.8 544.28h-226v-81.36h226v81.36zM778.68 255c0 0-76.84 20.069-76.84 59.574 0 37.606 49.765 53.426 49.765 130.266 0 62.376-18.984 99.44-81.405 99.44s-81.36-37.019-81.36-99.44c0-76.84 49.72-92.66 49.72-130.266 0-39.505-76.795-59.574-76.795-59.574-4.565 0-4.565-63.28-4.565-63.28h226c0 0 0 63.28-4.52 63.28z" />
<glyph unicode="&#xe69c;" glyph-name="address" d="M810.667 890.667h-597.333c-47.147 0-85.333-38.187-85.333-85.333v-597.333c0-47.147 38.187-85.333 85.333-85.333h170.667l128-128 128 128h170.667c47.147 0 85.333 38.187 85.333 85.333v597.333c0 47.147-38.187 85.333-85.333 85.333zM512 749.867c63.573 0 115.2-51.627 115.2-115.2s-51.627-115.2-115.2-115.2c-63.573 0-115.2 51.627-115.2 115.2s51.627 115.2 115.2 115.2zM768 293.333h-512v38.4c0 85.333 170.667 132.267 256 132.267s256-46.933 256-132.267v-38.4z" />
<glyph unicode="&#xe69d;" glyph-name="list" d="M904 560h-336q-23.624 0-39.812 16.188t-16.188 39.376 16.188 39.812 39.812 16.624h336q22.75 0 39.376-16.624t16.624-39.812-16.624-39.376-39.376-16.188zM400 0h-280q-23.624 0-39.812 16.188t-16.188 39.812v280q0 22.75 16.188 39.376t39.812 16.624h280q30.624 0 47.25-26.25l-201.25-202.124-47.25 47.25q-13.124 14-32.376 14t-32.812-13.564-13.564-32.812 13.124-33.25l75.25-75.25q14.876-14.876 37.624-12.25 22.75-2.624 37.624 12.25l172.376 172.376v-186.376q0-23.624-16.624-39.812t-39.376-16.188zM400 504h-280q-23.624 0-39.812 16.188t-16.188 39.812v280q0 22.75 16.188 39.376t39.812 16.624h280q30.624 0 47.25-26.25l-201.25-202.124-47.25 47.25q-13.124 14-32.376 14t-32.812-13.564-13.564-32.812 13.124-33.25l75.25-75.25q14.876-14.876 37.624-12.25 22.75-2.624 37.624 12.25l172.376 172.376v-186.376q0-23.624-16.624-39.812t-39.376-16.188zM568 224h336q22.75 0 39.376-16.624t16.624-39.812-16.624-39.376-39.376-16.188h-336q-23.624 0-39.812 16.188t-16.188 39.376 16.188 39.812 39.812 16.624z" />
<glyph unicode="&#xe69e;" glyph-name="print" d="M292.572 729.144h438.856v-109.716h-438.856v109.716zM896 564.572h-768c-30.172 0-54.856-24.684-54.856-54.856v-274.284c0-30.172 24.682-54.856 54.856-54.856h164.572v-219.428h438.856v219.428h164.572c30.172 0 54.856 24.684 54.856 54.856v274.284c0 30.172-24.684 54.856-54.856 54.856zM182.856 400c-30.298 0-54.856 24.562-54.856 54.856s24.562 54.856 54.856 54.856 54.856-24.562 54.856-54.856-24.56-54.856-54.856-54.856zM676.572 16h-329.144v274.284h329.144v-274.284z" />
<glyph unicode="&#xe69f;" glyph-name="alarm" d="M938.667 699.947l-196.053 164.48-54.827-65.28 196.053-164.48 54.827 65.28zM336.213 799.36l-54.827 65.28-196.053-164.48 54.827-65.28 196.053 164.48zM533.333 602.667h-64v-256l202.453-121.813 32.213 52.693-170.667 101.12v224zM511.787 773.333c-212.267 0-383.787-171.947-383.787-384s171.52-384 383.787-384 384.213 171.947 384.213 384-171.947 384-384.213 384zM512 90.667c-164.907 0-298.667 133.76-298.667 298.667s133.76 298.667 298.667 298.667 298.667-133.76 298.667-298.667-133.547-298.667-298.667-298.667z" />
<glyph unicode="&#xe6a0;" glyph-name="bookmark" d="M725.333 768h-426.667c-47.147 0-84.907-38.187-84.907-85.333l-0.427-682.667 298.667 128 298.667-128v682.667c0 47.147-38.187 85.333-85.333 85.333zM725.333 128l-213.333 92.8-213.333-92.8v554.667h426.667v-554.667z" />
<glyph unicode="&#xe6a1;" glyph-name="delete" d="M205.866 613.866v-560c0-30.8 25.2-56 56-56h504c30.8 0 56 25.2 56 56v560h-616zM373.866 109.866h-56v392h56v-392zM485.866 109.866h-56v392h56v-392zM597.866 109.866h-56v392h56v-392zM709.866 109.866h-56v392h56v-392zM835.866 781.866h-182v70c0 23.1-18.9 42-42 42h-196c-23.1 0-42-18.9-42-42v-70h-182c-23.1 0-42-18.9-42-42v-70h728v70c0 23.1-18.9 42-42 42zM597.866 781.866h-168v55.298h168v-55.298z" />
<glyph unicode="&#xe6a2;" glyph-name="expand" horiz-adv-x="805" d="M658.286 422.857v-36.571q0-8-5.143-13.143t-13.143-5.143h-201.143v-201.143q0-8-5.143-13.143t-13.143-5.143h-36.571q-8 0-13.143 5.143t-5.143 13.143v201.143h-201.143q-8 0-13.143 5.143t-5.143 13.143v36.571q0 8 5.143 13.143t13.143 5.143h201.143v201.143q0 8 5.143 13.143t13.143 5.143h36.571q8 0 13.143-5.143t5.143-13.143v-201.143h201.143q8 0 13.143-5.143t5.143-13.143zM731.429 166.857v475.429q0 37.714-26.857 64.571t-64.571 26.857h-475.429q-37.714 0-64.571-26.857t-26.857-64.571v-475.429q0-37.714 26.857-64.571t64.571-26.857h475.429q37.714 0 64.571 26.857t26.857 64.571zM804.571 642.286v-475.429q0-68-48.286-116.286t-116.286-48.286h-475.429q-68 0-116.286 48.286t-48.286 116.286v475.429q0 68 48.286 116.286t116.286 48.286h475.429q68 0 116.286-48.286t48.286-116.286z" />
<glyph unicode="&#xe6a3;" glyph-name="quote" d="M225 448c123.712 0 224-100.29 224-224 0-123.712-100.288-224-224-224s-224 100.288-224 224l-1 32c0 247.424 200.576 448 448 448v-128c-85.474 0-165.834-33.286-226.274-93.726-11.634-11.636-22.252-24.016-31.83-37.020 11.438 1.8 23.16 2.746 35.104 2.746zM801 448c123.71 0 224-100.29 224-224 0-123.712-100.29-224-224-224s-224 100.288-224 224l-1 32c0 247.424 200.576 448 448 448v-128c-85.474 0-165.834-33.286-226.274-93.726-11.636-11.636-22.254-24.016-31.832-37.020 11.44 1.8 23.16 2.746 35.106 2.746z" />
<glyph unicode="&#xe6a6;" glyph-name="dashboard" d="M128 341.333h341.333v426.667h-341.333v-426.667zM128 0h341.333v256h-341.333v-256zM554.667 0h341.333v426.667h-341.333v-426.667zM554.667 768v-256h341.333v256h-341.333z" />
<glyph unicode="&#xe6ab;" glyph-name="pin" horiz-adv-x="1008" d="M670.044 495.831h-314.965c-38.636 0-69.993-31.356-69.993-69.993s31.356-69.993 69.993-69.993h314.965c38.636 0 69.993 31.356 69.993 69.993s-31.356 69.993-69.993 69.993zM427.976 740.804l-37.901-209.977h244.973l-37.935 209.977h-169.137zM512.561 5.886l52.494 314.965h-104.989l52.494-314.965zM407.572 775.8h209.977c28.976 0 52.494 23.518 52.494 52.494s-23.518 52.494-52.494 52.494h-209.977c-29.012 0-52.494-23.518-52.494-52.494s23.482-52.494 52.494-52.494z" />
<glyph unicode="&#xe6ac;" glyph-name="unpin" d="M623.385 365.051l-292.009 168.597c-35.816 20.718-81.676 8.43-102.356-27.386-20.682-35.856-8.393-81.676 27.426-102.356l291.971-168.597c35.856-20.718 81.676-8.43 102.356 27.426 20.757 35.816 8.467 81.638-27.386 102.32zM382.555 547.36l227.117-131.13 77.254 214.979-156.831 90.517-147.541-174.366zM215.119-4.887l217.265 263.909-97.336 56.199-119.929-320.107zM780.78 750.087l-194.636 112.398c-26.901 15.511-61.257 6.332-76.767-20.569-15.547-26.901-6.294-61.257 20.569-76.767l194.673-112.398c26.901-15.511 61.257-6.332 76.767 20.569s6.294 61.257-20.606 76.767z" />
<glyph unicode="&#xe6ad;" glyph-name="visited" d="M512 660.571c-179.458 0-338.781-86.192-438.857-219.43 100.076-133.24 259.399-219.43 438.857-219.43s338.781 86.19 438.857 219.43c-100.076 133.238-259.399 219.43-438.857 219.43zM457.144 550.856c30.297 0 54.856-24.561 54.856-54.856s-24.561-54.856-54.856-54.856-54.856 24.561-54.856 54.856 24.561 54.856 54.856 54.856zM736.242 330.318c-33.984-17.363-69.988-30.738-107.011-39.752-38.133-9.288-77.572-13.995-117.231-13.995-39.657 0-79.1 4.707-117.229 13.993-37.023 9.015-73.027 22.39-107.011 39.752-54.017 27.603-103.047 65.493-143.691 110.827 40.644 45.333 89.674 83.228 143.691 110.827 27.716 14.161 56.78 25.668 86.643 34.319-17.047-25.922-26.973-56.943-26.973-90.288 0-90.891 73.683-164.571 164.571-164.571s164.571 73.681 164.571 164.571c0 33.345-9.927 64.366-26.972 90.292 29.861-8.653 58.923-20.16 86.643-34.321 54.019-27.599 103.043-65.493 143.689-110.827-40.646-45.332-89.672-83.228-143.689-110.825zM811.073 725.953c-93.189 47.619-193.811 71.761-299.073 71.761s-205.884-24.145-299.073-71.761c-50.375-25.742-97.484-58.203-139.784-96.065v-93.606c47.433 50.199 103.453 92.361 164.738 123.677 85.388 43.632 177.616 65.755 274.119 65.755s188.731-22.123 274.117-65.757c61.287-31.316 117.307-73.478 164.74-123.677v93.606c-42.3 37.863-89.407 70.325-139.784 96.067z" />
<glyph unicode="&#xe6af;" glyph-name="design" d="M647 402.752l48.752-48.752-60.752-60.752q-6.752-6.752 0-13.5l12.752-12.752q6.752-6.752 13.5 0l60.752 60.752 93.752-93.752-60.752-60.752q-6.752-6.752 0-12.752l12.752-13.5q6.752-6.752 13.5 0l60.752 60.752 47.248-47.248q6.752-6.752 6.752-16.5t-6.752-17.248l-120-120q-7.5-6.752-17.248-6.752t-16.5 6.752l-242.248 242.248-141-141q-12-12-29.248-12t-29.248 12l-57 57.752q-12 12-12 28.876t12 28.876l141 141-243 243q-6.752 6.752-6.752 16.5t6.752 16.5l120 120.752q7.5 6.752 17.248 6.752t16.5-6.752l47.248-47.248-60.752-60.752q-6.752-6.752 0-13.5l12.752-12.752q6.752-6.752 13.5 0l60.752 60.752 93.752-93.752-60.752-60.752q-6.752-6.752 0-13.5l12.752-12.752q6.752-6.752 13.5 0l60.752 60.752 48.752-49.5 237.752 237.752q12 12 28.876 12t28.876-12l57.752-57.752q12-12 12-28.876t-12-28.876zM177.497 162q1.5-6 5.248-9.752l97.501-97.501q3.752-3.752 9.752-5.248-3.752-7.5-6-9l-132-40.5q-18 0-21 3t-3 21l40.5 132q1.5 1.5 9 6z" />
<glyph unicode="&#xe6b1;" glyph-name="forward" d="M340.219 796.859c-78.188-141.647-91.359-357.71 215.781-350.504v174.504l264-264-264-264v170.753c-367.786-9.581-408.772 324.644-215.781 533.248z" />
<glyph unicode="&#xe6b2;" glyph-name="layout" d="M367.67 1.205h276.562v331.873h-276.562v-331.873zM35.797 1.205h276.562v719.060h-276.562v-719.060zM699.543 1.205h276.562v331.873h-276.562v-331.873zM367.67 720.265v-331.873h608.435v331.873h-608.435z" />
<glyph unicode="&#xe6b3;" glyph-name="widgets" d="M834.717 461.85h-61.713v164.573c0 45.462-36.822 82.284-82.284 82.284h-164.573v61.713c0 56.777-46.079 102.856-102.856 102.856s-102.856-46.079-102.856-102.856v-61.713h-164.573c-45.462 0-81.877-36.822-81.877-82.284l-0.203-156.343h61.51c61.303 0 111.087-49.782 111.087-111.087s-49.782-111.087-111.087-111.087h-61.51l-0.203-156.343c0-45.462 36.822-82.284 82.284-82.284h156.343v61.713c0 61.303 49.782 111.087 111.087 111.087s111.087-49.782 111.087-111.087v-61.713h156.343c45.462 0 82.284 36.822 82.284 82.284v164.573h61.713c56.777 0 102.856 46.079 102.856 102.856s-46.079 102.856-102.856 102.856z" />
<glyph unicode="&#xe6b4;" glyph-name="alignleft" d="M629.337 330.663h-469.337v-78.221h469.337v78.221zM629.337 643.554h-469.337v-78.221h469.337v78.221zM160 408.891h704v78.221h-704v-78.221zM160 96h704v78.221h-704v-78.221zM160 800v-78.221h704v78.221h-704z" />
<glyph unicode="&#xe6b5;" glyph-name="reply" d="M468 263.609v-170.753l-264 264 264 264v-174.504c307.14-7.205 293.969 208.857 215.783 350.504 192.991-208.593 152.009-542.83-215.783-533.247z" />
<glyph unicode="&#xe6b7;" glyph-name="alignright" d="M160 96h704v78.221h-704v-78.221zM394.663 252.446h469.337v78.221h-469.337v-78.221zM160 408.891h704v78.221h-704v-78.221zM394.663 565.337h469.337v78.221h-469.337v-78.221zM160 800v-78.221h704v78.221h-704z" />
<glyph unicode="&#xe6b9;" glyph-name="bgcolor" d="M682.24 562.24l-333.76 333.76-52.825-52.825 88.855-88.855-192.080-192.080c-21.84-21.84-21.84-57.305 0-79.145l205.335-205.335c10.825-11.015 25.2-16.425 39.575-16.425s28.745 5.415 39.575 16.425l205.335 205.335c21.84 21.84 21.84 57.305 0 79.145zM258.32 522.665l179.015 178.825 179.015-178.825h-358.025zM773.335 466.665s-74.665-80.825-74.665-130.665c0-41.255 33.415-74.665 74.665-74.665s74.665 33.415 74.665 74.665c0 49.84-74.665 130.665-74.665 130.665zM64 149.335h896v-149.335h-896z" />
<glyph unicode="&#xe6bb;" glyph-name="history" d="M556.222 810.667c-221.111 0-399.778-179.111-399.778-400h-133.333l173.111-173.111 3.111-6.445 179.333 179.555h-133.333c0 171.778 139.333 311.111 311.111 311.111s311.111-139.333 311.111-311.111-139.333-311.111-311.111-311.111c-86 0-163.555 35.111-219.778 91.333l-62.889-62.889c72.222-72.445 172-117.333 282.445-117.333 221.111 0 400.222 179.111 400.222 400s-179.111 400-400.222 400zM512 588.445v-222.222l190.222-112.889 32 54-155.555 92.222v188.889h-66.667z" />
<glyph unicode="&#xe6bc;" glyph-name="flag" d="M792 745.234c66.906 0 126.956 36.418 168 63.966v-521.23c-41.044-27.55-101.094-63.97-168-63.97s-126.956 19.838-168 47.388c-41.044 27.544-101.094 47.382-168 47.382s-126.954-34.052-168-61.596v521.23c41.046 27.548 101.094 61.6 168 61.6s126.956-19.836 168-47.384c41.044-27.548 101.094-47.386 168-47.386zM176 896c30.926 0 56-25.074 56-56v-840h-112v840c0 30.926 25.074 56 56 56z" />
<glyph unicode="&#xe6c6;" glyph-name="underline" d="M512 255.225c129.657 0 234.663 105.017 234.663 234.663v312.892h-97.779v-312.892c0-75.68-61.213-136.892-136.892-136.892s-136.892 61.213-136.892 136.892v312.892h-97.779v-312.892c0-129.657 105.017-234.663 234.663-234.663zM238.221 177v-78.221h547.552v78.221h-547.552z" />
<glyph unicode="&#xe6c7;" glyph-name="published1" d="M512 753.317c-200.725 0-372.151-124.85-441.599-301.092 69.449-176.242 240.874-301.092 441.599-301.092 200.932 0 372.151 124.85 441.599 301.092-69.449 176.242-240.676 301.092-441.599 301.092zM512 251.497c-110.803 0-200.725 89.924-200.725 200.725s89.924 200.725 200.725 200.725 200.725-89.924 200.725-200.725-89.924-200.725-200.725-200.725zM512 572.662c-66.438 0-120.436-53.999-120.436-120.436s53.999-120.436 120.436-120.436 120.436 53.999 120.436 120.436-53.999 120.436-120.436 120.436z" />
<glyph unicode="&#xe6c8;" glyph-name="published0" d="M512 646.99c109.844 0 198.99-89.146 198.99-198.99 0-25.671-5.174-50.146-14.128-72.631l116.411-116.411c60.096 50.146 107.456 115.018 136.707 189.041-69.050 174.712-238.789 298.484-437.977 298.484-55.716 0-109.046-9.95-158.594-27.859l85.963-85.765c22.485 8.755 46.964 14.128 72.631 14.128zM114.019 755.439l108.849-108.849c-65.667-51.338-117.603-119.593-148.645-198.593 68.849-174.712 238.789-298.484 437.779-298.484 61.686 0 120.589 11.94 174.515 33.63l16.913-16.913 116.012-116.21 50.744 50.544-705.419 705.619-50.744-50.744zM334.101 535.557l61.488-61.488c-1.79-8.557-2.986-17.114-2.986-26.069 0-65.867 53.53-119.393 119.393-119.393 8.954 0 17.511 1.193 25.867 2.986l61.488-61.488c-26.465-13.133-55.918-21.091-87.356-21.091-109.844 0-198.99 89.146-198.99 198.99 0 31.44 7.959 60.89 21.091 87.557zM505.434 566.799l125.365-125.365 0.598 6.566c0 65.867-53.53 119.393-119.393 119.393l-6.566-0.598z" />
</font>
</defs>
</svg>
